<svg width="93" height="28" viewBox="0 0 93 28" fill="none" xmlns="http://www.w3.org/2000/svg">
<path d="M37.309 4.34423H36.8874V0.36458H34.2537V4.34423H33.8324V0.0118408H37.309V4.34423Z" fill="white"/>
<path d="M41.2937 0.36458H38.6534V1.92832H41.1263V2.27528H38.6534V3.99119H41.3182V4.34393H38.2318V0.0118408H41.2934V0.36458H41.2937Z" fill="white"/>
<path d="M43.8466 0.0118408C44.6709 0.0118408 45.2348 0.419363 45.2348 1.22893C45.2348 2.07471 44.6709 2.49441 43.8342 2.49441H42.3778V4.34423H41.9565V0.0118408H43.8466ZM42.3775 2.14745H43.7161C44.3237 2.14745 44.8132 1.90397 44.8132 1.25936C44.8132 0.638493 44.3919 0.364884 43.7598 0.364884H42.3775V2.14745Z" fill="white"/>
<path d="M45.873 0.0118408H46.2943V3.99119H48.4513V0.0118408H48.8722V3.99119H51.0292V0.0118408H51.4502V4.34423H45.8727V0.0118408H45.873Z" fill="white"/>
<path d="M55.8805 4.34426H55.4152L54.8829 2.98139H52.8621L52.323 4.34426H51.8704L53.6553 0H54.1203L55.8805 4.34426ZM53.8851 0.389261L52.9923 2.64661H54.7527L53.8851 0.389261Z" fill="white"/>
<path d="M33.8017 7.44635L35.2454 10.3367L36.6773 7.44635H37.1234L35.3632 11.0243C34.9977 11.7666 34.6942 11.8697 34.2602 11.8697C34.0618 11.8697 33.9254 11.8153 33.8017 11.7605V11.4074C33.882 11.4561 34.0246 11.517 34.2974 11.517C34.6074 11.517 34.8055 11.2251 34.9543 10.9208L35.0101 10.8051L33.3491 7.44635H33.8017Z" fill="white"/>
<path d="M39.0932 9.21735L41.1816 11.779H40.6426L38.7956 9.49735L37.9527 10.2518V11.779H37.5376V7.44635H37.9527V9.77674L40.5248 7.44635H41.0824L39.0932 9.21735Z" fill="white"/>
<path d="M43.4994 7.44635C44.3237 7.44635 44.8876 7.85418 44.8876 8.66344C44.8876 9.50922 44.3237 9.92922 43.4867 9.92922H42.0303V11.779H41.609V7.44635H43.4994ZM42.0306 9.58196H43.3692C43.9765 9.58196 44.4663 9.33879 44.4663 8.69387C44.4663 8.073 44.045 7.79909 43.4129 7.79909H42.0309V9.58196H42.0306Z" fill="white"/>
<path d="M48.6055 11.7788H48.1405L47.6076 10.4159H45.587L45.0479 11.7788H44.5953L46.3803 7.43451H46.845L48.6055 11.7788ZM46.6097 7.82407L45.7175 10.0814H47.4774L46.6097 7.82407Z" fill="white"/>
<path d="M48.9154 7.03298H48.5127V6.41241H48.9154V7.03298ZM49.4855 11.779H49.0645V7.44659H49.4855V11.779ZM50.0373 7.03298H49.6349V6.41241H50.0373V7.03298Z" fill="white"/>
<path d="M53.9091 11.7787H53.4882V9.68574H50.8541V11.7787H50.4331V7.44635H50.8541V9.3327H53.4882V7.44635H53.9091V11.7787Z" fill="white"/>
<path d="M56.6489 11.8762C55.4275 11.8762 54.6277 10.9881 54.6277 9.61884C54.6277 8.40175 55.3466 7.34323 56.6852 7.34323C57.5342 7.34323 58.3898 7.86671 58.4887 8.74871H58.0678C57.9314 8.1038 57.3916 7.70206 56.6731 7.70206C55.6938 7.70206 55.0434 8.46871 55.0434 9.61884C55.0434 10.7687 55.6817 11.5234 56.6607 11.5234C57.5466 11.5234 58.0368 10.9272 58.1291 10.1177H58.5445C58.4518 11.1887 57.7082 11.8762 56.6489 11.8762Z" fill="white"/>
<path d="M61.1902 11.7787H59.2257V7.44635H59.6473V9.27183H61.1902C62.0021 9.27183 62.504 9.75878 62.504 10.5251C62.504 11.2921 62.0021 11.7787 61.1902 11.7787ZM61.0972 9.62518H59.6473V11.426H61.0972C61.7172 11.426 62.0827 11.0851 62.0827 10.5254C62.0827 9.96574 61.7172 9.62518 61.0972 9.62518Z" fill="white"/>
<path d="M64.711 9.21735L66.7994 11.779H66.26L64.4137 9.49735L63.5708 10.2518V11.779H63.1554V7.44635H63.5708V9.77674L66.1426 7.44635H66.6999L64.711 9.21735Z" fill="white"/>
<path d="M70.7159 11.7788H70.2509L69.7174 10.4159H67.6974L67.1583 11.7788H66.7061L68.491 7.43451H68.956L70.7159 11.7788ZM68.7198 7.82407L67.8273 10.0814H69.5875L68.7198 7.82407Z" fill="white"/>
<path d="M37.309 19.2139H36.8874V15.2346H34.2537V19.2142H33.8324V14.8815H37.309V19.2139Z" fill="white"/>
<path d="M41.0705 19.2136V15.2343H39.2918L39.2115 17.7838C39.1864 18.6539 38.9511 19.3046 38.2818 19.3046C38.1082 19.3046 37.947 19.2684 37.8357 19.2194V18.8791C37.9163 18.9275 38.1454 18.9519 38.2694 18.9519C38.5856 18.9519 38.7716 18.6475 38.8088 17.5403L38.8953 14.8809H41.4921V19.2136H41.0705Z" fill="white"/>
<path d="M45.9036 19.2139H45.439L44.9061 17.8507H42.8855L42.3464 19.2139H41.8938L43.6788 14.8693H44.1438L45.9036 19.2139ZM43.9082 15.2589L43.0157 17.5162H44.7759L43.9082 15.2589Z" fill="white"/>
<path d="M48.9469 15.2346H47.3972V19.2142H46.9763V15.2346H45.4269V14.8815H48.9469V15.2346Z" fill="white"/>
<path d="M51.3133 18.6901V19.2136H50.8923V18.6901C49.8882 18.6901 48.9641 18.1429 48.9641 17.0107C48.9641 15.9215 49.8693 15.3557 50.8923 15.3557V14.8806H51.3133V15.3557C52.3357 15.3557 53.2409 15.9212 53.2409 17.0107C53.2406 18.1429 52.3168 18.6901 51.3133 18.6901ZM50.892 15.709C50.0305 15.7517 49.3795 16.1105 49.3795 17.011C49.3795 17.9058 50.0485 18.2829 50.892 18.3432V15.709ZM51.3133 15.709V18.3432C52.1562 18.2826 52.8255 17.9055 52.8255 17.011C52.8255 16.1105 52.1745 15.7517 51.3133 15.709Z" fill="white"/>
<path d="M57.8321 17.0597C57.8321 18.4104 56.9892 19.3171 55.744 19.3171C54.5043 19.3171 53.6735 18.4043 53.6735 17.0476C53.6735 15.6969 54.5102 14.778 55.7498 14.778C56.983 14.778 57.8321 15.7023 57.8321 17.0597ZM54.0947 17.0351C54.0947 18.1974 54.752 18.958 55.7498 18.958C56.7474 18.958 57.4102 18.1974 57.4102 17.0533C57.4102 15.9093 56.7415 15.1366 55.7436 15.1366C54.7585 15.1366 54.0947 15.9038 54.0947 17.0351Z" fill="white"/>
<path d="M60.4347 14.8815C61.259 14.8815 61.8232 15.2894 61.8232 16.0989C61.8232 16.9444 61.2593 17.3644 60.4226 17.3644H58.9659V19.2142H58.5443V14.8815H60.4347ZM58.9659 17.0174H60.3045C60.9118 17.0174 61.4016 16.7737 61.4016 16.1291C61.4016 15.5082 60.98 15.2346 60.3479 15.2346H58.9659V17.0174Z" fill="white"/>
<path d="M66.7434 19.2139H66.3401V16.5974C66.3401 16.1412 66.3584 15.6911 66.3897 15.2346C66.3023 15.4963 66.2031 15.7644 66.0983 16.0195L64.7966 19.2142H64.4184L63.0987 16.0566C62.9874 15.7949 62.8941 15.5267 62.8076 15.2592C62.8386 15.703 62.8572 16.1415 62.8572 16.5856V19.2142H62.4542V14.8815H63.0249L64.3077 17.9728C64.4184 18.2406 64.5117 18.5142 64.6112 18.7881C64.7101 18.5206 64.7969 18.2467 64.9029 17.985L66.1668 14.8815H66.7434V19.2139Z" fill="white"/>
<path d="M71.16 19.2139H70.6962L70.1624 17.8507H68.1418L67.6027 19.2139H67.1501L68.9354 14.8693H69.4004L71.16 19.2139ZM69.1645 15.2589L68.272 17.5162H70.0328L69.1645 15.2589Z" fill="white"/>
<path d="M35.3883 24.0873L37.4768 26.6487H36.9377L35.0907 24.367L34.2478 25.1212V26.6487H33.8324V22.3166H34.2478V24.647L36.8196 22.3166H37.3772L35.3883 24.0873Z" fill="white"/>
<path d="M39.7937 22.3166C40.618 22.3166 41.1822 22.7244 41.1822 23.5337C41.1822 24.3795 40.6183 24.7992 39.7816 24.7992H38.3249V26.649H37.9033V22.3166H39.7937ZM38.3249 24.4522H39.6635C40.2711 24.4522 40.7606 24.2088 40.7606 23.5638C40.7606 22.9433 40.3393 22.6697 39.7069 22.6697H38.3249V24.4522Z" fill="white"/>
<path d="M44.9007 26.6487H44.4357L43.9028 25.2855H41.8822L41.3432 26.6487H40.8909L42.6758 22.3041H43.1408L44.9007 26.6487ZM42.9052 22.6937L42.0128 24.9514H43.7729L42.9052 22.6937Z" fill="white"/>
<path d="M45.2909 22.3166L46.7348 25.207L48.1664 22.3166H48.6125L46.852 25.8946C46.4862 26.6366 46.1827 26.74 45.7487 26.74C45.5503 26.74 45.4139 26.6853 45.2902 26.6305V26.2777C45.3705 26.3264 45.5131 26.3867 45.7859 26.3867C46.0959 26.3867 46.294 26.0948 46.4428 25.7908L46.4986 25.6748L44.8376 22.3163L45.2909 22.3166Z" fill="white"/>
<path d="M52.1997 27.8168V26.6487H48.7788V27.8168H48.3575V26.2957H48.7602C49.4481 25.0302 49.4171 23.5882 49.4171 22.5662V22.3166H52.1566V26.2957H52.6213V27.8168H52.1997ZM51.7347 22.6694H49.8381V22.7485C49.8381 23.7157 49.8446 25.1154 49.2063 26.2957H51.7347V22.6694Z" fill="white"/>
<path d="M56.6311 26.6487H56.2095V22.6694H53.5755V26.6487H53.1542V22.3166H56.6314V26.6487H56.6311Z" fill="white"/>
<path d="M61.061 26.6487H60.596L60.0631 25.2855H58.0425L57.5037 26.6487H57.0511L58.8358 22.3041H59.3005L61.061 26.6487ZM59.0655 22.6937L58.173 24.9514H59.9329L59.0655 22.6937Z" fill="white"/>
<path d="M63.5761 26.6487H61.4877V22.3166H64.5427V22.6697H61.9093V24.1421H63.5761C64.3877 24.1421 64.8893 24.6288 64.8893 25.3954C64.8896 26.1621 64.3877 26.6487 63.5761 26.6487ZM63.4831 24.4948H61.9093V26.2957H63.4831C64.1028 26.2957 64.4689 25.9551 64.4689 25.3954C64.4689 24.8354 64.1031 24.4948 63.4831 24.4948Z" fill="white"/>
<path d="M68.2913 26.6487V22.6694H66.5135L66.4325 25.2186C66.4074 26.089 66.1715 26.7397 65.5025 26.7397C65.3293 26.7397 65.1684 26.7032 65.0568 26.6548V26.314C65.1367 26.3626 65.3665 26.3867 65.4898 26.3867C65.8063 26.3867 65.992 26.083 66.0289 24.9751L66.116 22.3163H68.7126V26.6484L68.2913 26.6487Z" fill="white"/>
<path d="M70.0698 26.6487H69.6482V22.3166H70.0698V26.6487Z" fill="white"/>
<path d="M71.0238 22.3166H71.4448V26.2957H73.6021V22.3166H74.0227V26.2957H76.18V22.3166H76.6007V26.6487H71.0238V22.3166Z" fill="white"/>
<path d="M77.5228 22.3166H77.9444V26.2044L80.448 22.3166H80.9933V26.6487H80.572V22.7607L78.0687 26.6487H77.5228V22.3166Z" fill="white"/>
<path d="M85.3888 26.6487H84.9672V24.5557H82.3331V26.6487H81.9115V22.3166H82.3331V24.2027H84.9672V22.3166H85.3888V26.6487Z" fill="white"/>
<path d="M86.3044 26.6487V22.3166H89.0374V22.6697H86.7189V26.649L86.3044 26.6487Z" fill="white"/>
<path d="M89.5208 22.3166L90.9648 25.207L92.3963 22.3166H92.8427L91.0819 25.8946C90.7171 26.6366 90.413 26.74 89.9786 26.74C89.7799 26.74 89.6445 26.6853 89.5202 26.6305V26.2777C89.6008 26.3264 89.7434 26.3867 90.0162 26.3867C90.3258 26.3867 90.5246 26.0948 90.6727 25.7908L90.7285 25.6748L89.0679 22.3163L89.5208 22.3166Z" fill="white"/>
<path d="M3.48836 12.7212L5.04921 14.8861H4.04605L2.94121 13.2788L2.47559 13.7307V14.8857H1.68726V11.3097H2.47528V12.7967L3.9081 11.3097H4.91591L3.48836 12.7212Z" fill="white"/>
<path d="M13.8427 22.7088L15.4036 24.8736H14.4004L13.2953 23.2661L12.8296 23.7186V24.8736H12.0416V21.2969H12.8296V22.7843L14.2625 21.2969H15.2706L13.8427 22.7088Z" fill="white"/>
<path d="M23.9685 11.3097C24.6081 11.3097 25.1301 11.576 25.1301 12.209C25.1301 12.5557 24.9305 12.8168 24.6335 12.9474C25.0123 13.053 25.2988 13.3241 25.2988 13.8217C25.2988 14.5199 24.7513 14.8864 24.0656 14.8864H22.244V11.3097H23.9685ZM23.0221 12.7565H23.7488C24.0402 12.7565 24.3523 12.7014 24.3523 12.3396C24.3523 11.9777 24.0553 11.9177 23.7488 11.9177H23.0221V12.7565ZM23.0221 14.2637H23.8253C24.1682 14.2637 24.5005 14.1982 24.5005 13.7764C24.5005 13.3442 24.1425 13.2888 23.7844 13.2888H23.0221V14.2637Z" fill="white"/>
<path d="M11.5562 1.66742H12.6973L13.5467 4.12411L14.3756 1.66742H15.491V5.24412H14.7389V2.7022L13.8433 5.24412H13.2243L12.3188 2.72746V5.24412H11.5565L11.5562 1.66742Z" fill="white"/>
<path d="M26.5204 26.5869L27.0768 26.0404L0.55736 0.0191995L0.000965411 0.565758L26.5204 26.5869Z" fill="white"/>
<path d="M27.076 0.565144L26.5197 0.0185852L1.01218e-05 26.04L0.556404 26.5865L27.076 0.565144Z" fill="white"/>
</svg>
