<svg width="149" height="26" viewBox="0 0 149 26" fill="none" xmlns="http://www.w3.org/2000/svg">
<g clip-path="url(#clip0_838_145)">
<path d="M40.5812 8.80879H41.5994C42.7874 8.80879 43.4902 8.24049 43.4902 7.36435C43.4902 6.77236 43.1267 6.36981 42.6418 6.20406C43.0056 6.01462 43.2479 5.68311 43.2479 5.20952C43.2479 4.45178 42.6176 3.83612 41.5266 3.83612H39.369V7.43539C39.3448 8.42993 39.7811 8.80879 40.5812 8.80879ZM40.363 4.66489H41.3813C41.9874 4.66489 42.2297 4.878 42.2297 5.23319C42.2297 5.5884 41.9874 5.82518 41.3813 5.82518H40.363V4.66489ZM40.363 6.67765H41.3571C42.0357 6.67765 42.4478 6.84339 42.4478 7.31698C42.4478 7.79057 42.1327 7.98001 41.4783 7.98001H40.7993C40.4842 7.98001 40.363 7.86161 40.363 7.31698V6.67765Z" fill="white"/>
<path d="M50.4492 8.71404L52.825 5.39892V8.57194C52.825 8.73771 52.922 8.80875 53.1401 8.80875H53.8674V4.07286C53.6492 3.88342 53.3341 3.76501 53.1643 3.76501C53.019 3.76501 52.922 3.81238 52.8492 3.90712L50.4734 7.22224V4.00182C50.4734 3.83605 50.3764 3.76501 50.1583 3.76501C49.9401 3.76501 49.6733 3.78871 49.4552 3.85975V8.54827C49.6733 8.73771 49.9885 8.85611 50.1583 8.85611C50.2794 8.85611 50.3764 8.80875 50.4492 8.71404Z" fill="white"/>
<path d="M59.9025 9.89804H60.6298V8.80879H63.6358V9.66126C63.6358 9.827 63.7328 9.89804 63.9509 9.89804H64.6782V8.19312C64.6782 8.02738 64.5815 7.95634 64.3631 7.95634H64.0479V4.0729C64.0479 3.90716 63.9754 3.83612 63.7328 3.83612H60.8724C60.7754 5.32792 60.557 6.72499 60.1207 7.95634H59.6116V9.66126C59.6116 9.827 59.6844 9.89804 59.9025 9.89804ZM61.7692 4.66489H63.0055V7.95634H61.1389C61.4782 6.91443 61.6722 5.70678 61.7692 4.66489Z" fill="white"/>
<path d="M74.8603 8.05101C74.6422 8.05101 74.4968 7.93264 74.4968 7.55376V5.70677C74.4968 4.38071 73.6726 3.71768 72.3151 3.71768C71.321 3.71768 70.6179 4.12023 70.6179 4.40441C70.6179 4.54648 70.6907 4.75959 70.7636 4.83063C71.1512 4.64119 71.5878 4.54648 72.0483 4.54648C73.0181 4.54648 73.4786 4.92534 73.4786 5.63573V5.94355C73.1876 5.80148 72.6785 5.68307 72.2422 5.68307C71.0059 5.68307 70.2058 6.27507 70.2058 7.31698C70.2058 8.24046 70.9089 8.85612 71.9271 8.85612C72.6302 8.85612 73.2118 8.5246 73.5273 8.00368C73.6484 8.57197 74.0605 8.80878 74.424 8.80878C74.8603 8.80878 75.1271 8.5483 75.1271 8.35886C75.1271 8.24046 75.1029 8.12205 75.0788 8.00368H74.8603V8.05101ZM73.4786 7.29328C73.2363 7.76687 72.6785 8.07471 72.1694 8.07471C71.6361 8.07471 71.224 7.8379 71.224 7.34065C71.224 6.86706 71.6361 6.60658 72.3876 6.60658C72.703 6.60658 73.2363 6.65395 73.4786 6.72499V7.29328Z" fill="white"/>
<path d="M84.1449 6.20406C84.5087 6.01462 84.751 5.68311 84.751 5.20952C84.751 4.45178 84.1208 3.83612 83.03 3.83612H80.8724V7.43539C80.8724 8.42993 81.3329 8.80879 82.1088 8.80879H83.127C84.3147 8.80879 85.0178 8.24049 85.0178 7.36435C84.9937 6.74869 84.6299 6.36981 84.1449 6.20406ZM81.8907 4.66489H82.9086C83.5147 4.66489 83.7573 4.878 83.7573 5.23319C83.7573 5.5884 83.5147 5.82518 82.9086 5.82518H81.8907V4.66489ZM83.0056 7.95634H82.3269C82.0118 7.95634 81.8907 7.83794 81.8907 7.29331V6.67765H82.8844C83.5633 6.67765 83.9754 6.84339 83.9754 7.31698C83.9513 7.7669 83.6603 7.95634 83.0056 7.95634Z" fill="white"/>
<path d="M94.9328 3.83619H94.2055V5.82528H91.951V4.02563C91.951 3.85989 91.854 3.78885 91.6358 3.78885C91.4177 3.78885 91.1509 3.81252 90.9327 3.88355V8.57207C90.9327 8.73784 91.0297 8.80888 91.2479 8.80888H91.9751V6.65405H94.2297V8.57207C94.2297 8.73784 94.3025 8.80888 94.5448 8.80888H95.2721V4.073C95.2479 3.90725 95.1509 3.83619 94.9328 3.83619Z" fill="white"/>
<path d="M104.921 3.93079L102.545 7.24591V4.00182C102.545 3.83605 102.448 3.76501 102.23 3.76501C102.012 3.76501 101.745 3.78871 101.527 3.85975V8.54827C101.745 8.73771 102.06 8.85611 102.23 8.85611C102.376 8.85611 102.472 8.80875 102.545 8.71404L104.921 5.39892V8.57194C104.921 8.73771 105.018 8.80875 105.236 8.80875H105.963V4.07286C105.745 3.88342 105.43 3.76501 105.26 3.76501C105.115 3.76501 105.018 3.81238 104.921 3.93079Z" fill="white"/>
<path d="M113.453 8.80875H116.169V9.66122C116.169 9.82696 116.266 9.898 116.484 9.898H117.211V8.19308C117.211 8.02731 117.114 7.95627 116.896 7.95627H116.557V4.07286C116.557 3.90712 116.46 3.83608 116.241 3.83608H115.514V7.95627H113.647C113.332 7.95627 113.211 7.8379 113.211 7.29327V4.00182C113.211 3.83605 113.114 3.76501 112.896 3.76501C112.678 3.76501 112.411 3.78871 112.193 3.85975V7.43535C112.217 8.42986 112.678 8.80875 113.453 8.80875Z" fill="white"/>
<path d="M124.169 8.57208C124.169 8.73786 124.241 8.80889 124.484 8.80889H125.211V4.66497H126.908V4.12035C126.908 3.90724 126.835 3.81253 126.665 3.81253H122.544C122.496 3.97827 122.471 4.19138 122.471 4.35716C122.471 4.57027 122.544 4.66497 122.714 4.66497H124.169V8.57208Z" fill="white"/>
<path d="M133.938 8.80879H134.956C136.144 8.80879 136.848 8.24049 136.848 7.36435C136.848 6.77236 136.484 6.36981 135.999 6.20406C136.363 6.01462 136.605 5.68311 136.605 5.20952C136.605 4.45178 135.975 3.83612 134.884 3.83612H132.726V7.43539C132.702 8.42993 133.138 8.80879 133.938 8.80879ZM133.72 4.66489H134.738C135.344 4.66489 135.587 4.878 135.587 5.23319C135.587 5.5884 135.344 5.82518 134.738 5.82518H133.72V4.66489ZM133.72 6.67765H134.714C135.393 6.67765 135.805 6.84339 135.805 7.31698C135.805 7.79057 135.49 7.98001 134.835 7.98001H134.157C133.841 7.98001 133.72 7.86161 133.72 7.31698V6.67765Z" fill="white"/>
<path d="M144.994 8.90338C146.351 8.90338 147.515 7.97987 147.515 6.32232C147.515 4.66475 146.351 3.74124 144.994 3.74124C143.636 3.74124 142.473 4.66475 142.473 6.32232C142.497 7.97987 143.636 8.90338 144.994 8.90338ZM144.97 4.59371C145.745 4.59371 146.473 5.20937 146.473 6.39336C146.473 7.55365 145.818 8.07457 145.042 8.07457C144.267 8.07457 143.539 7.45891 143.539 6.27496C143.539 5.09097 144.194 4.59371 144.97 4.59371Z" fill="white"/>
<path d="M42.9321 14.2076C40.7745 14.2076 39.126 15.6758 39.126 18.02C39.126 20.5537 40.9443 22.235 43.3683 22.235C44.7262 22.235 45.8897 21.5956 45.8897 21.1457C45.8897 20.8852 45.7441 20.5301 45.5988 20.3169C45.1138 20.5774 44.411 20.7195 43.7563 20.7195C42.1078 20.7195 41.0171 19.6302 41.0171 17.9727C41.0171 16.5045 41.8169 15.6994 42.8592 15.6994C43.6351 15.6994 44.2171 16.1257 44.5322 16.9545C44.9685 16.9308 45.4776 16.7887 45.8169 16.5993C46.035 16.4572 46.1562 16.3151 46.1562 16.1257C46.1562 15.9836 46.132 15.8889 46.0595 15.7468C45.5504 14.847 44.4352 14.2076 42.9321 14.2076Z" fill="white"/>
<path d="M54.9818 14.3497H49.0423C48.9695 14.6812 48.9211 15.1075 48.9211 15.4153C48.9211 15.7231 49.0665 15.8415 49.2846 15.8415H51.1516V21.785C51.1516 21.9982 51.2727 22.0929 51.5637 22.0929H53.0424V15.8415H55.2969V14.7286C55.3211 14.4681 55.1999 14.3497 54.9818 14.3497Z" fill="white"/>
<path d="M61.3575 14.255C60.8971 14.255 60.388 14.3734 60 14.5391L57.3333 21.714C57.2608 21.9508 57.4303 22.0929 57.6729 22.0929H59.2003L59.6849 20.6247H62.4002L62.7879 21.8087C62.8607 21.9982 62.9819 22.0929 63.297 22.0929H64.8971L62.1818 14.7759C62.0123 14.3734 61.8425 14.255 61.3575 14.255ZM60.1215 19.204L61.0182 16.4572L61.9153 19.204H60.1215Z" fill="white"/>
<path d="M70.6676 14.3497H67.8556V21.785C67.8556 21.9982 67.9767 22.1166 68.2677 22.1166H69.7464V19.9381C70.0857 20.0328 70.5223 20.0801 70.8374 20.0801C72.6071 20.0801 73.9163 19.0145 73.9163 17.2623C73.9404 15.439 72.7041 14.3497 70.6676 14.3497ZM70.5706 18.5647C70.2797 18.5647 70.0132 18.541 69.7706 18.4936V15.8415H70.5948C71.4919 15.8415 72.0251 16.2914 72.0251 17.2149C72.0251 18.1147 71.4435 18.5647 70.5706 18.5647Z" fill="white"/>
<path d="M80.8481 14.2076C78.6664 14.2076 76.9209 15.6521 76.9209 18.2332C76.9209 20.8142 78.6664 22.2586 80.8481 22.2586C83.0299 22.2586 84.7754 20.8142 84.7754 18.2332C84.7754 15.6521 83.0057 14.2076 80.8481 14.2076ZM80.8965 20.7432C79.7571 20.7432 78.8117 19.7486 78.8117 18.1384C78.8117 16.4572 79.7329 15.7231 80.7753 15.7231C81.9147 15.7231 82.8601 16.7177 82.8601 18.3279C82.8601 19.9854 81.9389 20.7432 80.8965 20.7432Z" fill="white"/>
<path d="M92.9939 14.3497H88.1699V21.8087C88.1699 22.0219 88.2911 22.1166 88.582 22.1166H90.0607V15.8415H93.3094V14.7286C93.3335 14.4681 93.2124 14.3497 92.9939 14.3497Z" fill="white"/>
<path d="M99.9025 14.2076C97.7207 14.2076 95.9752 15.6521 95.9752 18.2332C95.9752 20.8142 97.7207 22.2586 99.9025 22.2586C102.084 22.2586 103.83 20.8142 103.83 18.2332C103.83 15.6521 102.084 14.2076 99.9025 14.2076ZM99.9753 20.7432C98.8359 20.7432 97.8902 19.7486 97.8902 18.1384C97.8902 16.4572 98.8114 15.7231 99.8541 15.7231C100.993 15.7231 101.939 16.7177 101.939 18.3279C101.939 19.9854 101.018 20.7432 99.9753 20.7432Z" fill="white"/>
<path d="M119.467 14.3497H114.23C114.23 16.1967 114.133 17.8543 113.915 19.2514C113.721 20.459 113.43 20.7432 112.921 20.7432C112.63 20.7432 112.339 20.6958 112.097 20.5774C111.952 20.7905 111.855 21.0983 111.855 21.4062C111.855 21.8087 112.679 22.235 113.479 22.235C114.74 22.235 115.515 21.4299 115.806 19.4645C115.976 18.2805 116.073 16.9071 116.121 15.8415H117.988V21.785C117.988 21.9982 118.109 22.0929 118.4 22.0929H119.879V14.6575C119.855 14.4444 119.733 14.3497 119.467 14.3497Z" fill="white"/>
<path d="M128.508 20.6011H126.23C125.696 20.6011 125.478 20.3169 125.478 19.4881V18.9909H128.145V17.9016C128.145 17.6175 128.023 17.4991 127.805 17.4991H125.478V15.8652H128.63C128.702 15.5337 128.751 15.1311 128.751 14.776C128.751 14.4918 128.63 14.3497 128.387 14.3497H123.612V19.5118C123.612 21.4772 124.29 22.1166 126.06 22.1166H128.872V21.0273C128.848 20.7432 128.727 20.6011 128.508 20.6011Z" fill="white"/>
<path d="M137.091 18.0911C137.721 17.8306 138.157 17.1913 138.157 16.4335C138.157 15.2022 137.164 14.3261 135.273 14.3261H132.218V19.6066C132.218 21.3825 132.921 22.0929 134.57 22.0929H135.467C137.43 22.0929 138.424 21.1931 138.424 19.8907C138.424 18.9909 137.867 18.3516 137.091 18.0911ZM134.133 15.7705H135.224C135.927 15.7705 136.242 16.1257 136.242 16.6467C136.242 17.1439 135.927 17.5228 135.224 17.5228H134.133V15.7705ZM135.442 20.6721H134.957C134.376 20.6721 134.133 20.388 134.133 19.5592V18.8725H135.37C136.121 18.8725 136.509 19.204 136.509 19.7487C136.509 20.3406 136.17 20.6721 135.442 20.6721Z" fill="white"/>
<path d="M146.012 14.7759C145.866 14.3734 145.696 14.255 145.212 14.255C144.751 14.255 144.242 14.3734 143.854 14.5391L141.187 21.714C141.115 21.9508 141.284 22.0929 141.527 22.0929H143.054L143.539 20.6247H146.23L146.618 21.8087C146.691 21.9982 146.812 22.0929 147.127 22.0929H148.727L146.012 14.7759ZM143.975 19.204L144.872 16.4572L145.769 19.204H143.975Z" fill="white"/>
<path d="M22.0844 9.96918C21.3814 9.96918 20.8239 10.5138 20.8239 11.2005C20.8239 11.8872 21.3814 12.4318 22.0844 12.4318C22.7875 12.4318 23.345 11.8872 23.345 11.2005C23.345 10.5138 22.7632 9.96918 22.0844 9.96918Z" fill="#F37429"/>
<path d="M27.0295 16.0073L28.8962 17.8069L30.7627 16.0073H27.0295Z" fill="#F37429"/>
<path d="M25.8302 17.1728L22.9851 19.9527L23.2251 20.1871L26.0703 17.4072L25.8302 17.1728Z" fill="#F37429"/>
<path d="M24.2183 19.9144L24.4607 20.1512L26.6667 17.9964L26.4243 17.7596L24.2183 19.9144Z" fill="#F37429"/>
<path d="M14.4971 12.8106C16.2669 11.1293 21.4789 5.99088 21.4789 5.99088L26.4244 10.8215C25.3577 4.68852 19.9032 0 13.3093 0C5.96385 0 0.000244141 5.82514 0.000244141 13C0.000244141 20.1749 5.96385 26 13.3093 26C16.5335 26 19.6365 24.7213 21.9396 22.8506L12.3638 13.4499C12.3638 13.4499 13.0426 14.1603 14.4971 12.8106ZM12.3154 12.5264V6.01458L16.3153 9.89799C16.3153 9.89799 16.0002 10.2295 13.9638 12.2186C12.8972 13.2605 12.3154 12.5264 12.3154 12.5264Z" fill="#F37429"/>
</g>
<defs>
<clipPath id="clip0_838_145">
<rect width="149" height="26" fill="white"/>
</clipPath>
</defs>
</svg>
