<svg width="98" height="20" viewBox="0 0 98 20" fill="none" xmlns="http://www.w3.org/2000/svg">
<path d="M88.6064 0.115234C90.1626 0.486671 98.5713 18.2393 97.9629 19.1807V19.1738L95.3887 19.584L94.46 16.6377L93.2432 16.0361C90.3549 17.5217 85.5519 15.8628 83.0352 16.7529C81.7543 17.2076 81.7476 19.9489 79.4102 19.2061C81.2032 16.5677 85.4171 1.74951 86.8838 0.595703C87.2872 0.275564 88.0621 0.128095 88.6064 0.115234ZM28.7861 0.327148C29.9004 0.416805 31.3548 -0.230535 32.3154 0.608398C33.507 1.65341 41.6953 17.2495 41.6074 18.2451C41.204 19.0456 39.6541 19.6091 39.0713 19.1992V19.2061C38.8984 19.0844 38.7961 17.0286 38.3223 16.7402C37.3104 16.119 27.2044 16.2926 26.0068 16.7217L24.8799 19.0977L22.4141 19.1992L28.7861 0.327148ZM17.9316 19.2061C12.4243 19.5006 6.67989 8.03805 2.88867 8.3125L2.55566 19.2061H0V0.633789L13.5059 14.3457L16.0098 15.3633V2.23535C16.0098 1.90234 14.9981 0.883762 15.376 0H17.9316V19.2061ZM72.0391 13.4482C73.781 12.9167 76.4133 -2.62545 80.0508 0.640625L72.9746 19.1807L71.1104 19.1992L63.4062 0.948242C63.6496 0.346343 65.4684 0.518525 65.8594 0.749023C66.4614 1.10125 69.9006 10.5475 70.7588 12.1934C71.1046 12.8466 70.8288 13.8196 72.0391 13.4482ZM45.5391 0.179688C46.1731 -0.00603065 46.8464 0.153713 47.4932 0.275391C49.235 0.614747 51.0281 0.685818 52.7891 0.487305C54.4092 0.307997 56.0357 0.0838008 57.6494 0.442383C57.8799 0.493613 58.1558 0.595652 58.207 0.826172C58.2455 0.97987 58.1618 1.14036 58.085 1.28125C55.581 5.86007 53.0966 10.4519 50.6055 15.0371C50.6252 16.5738 56.9069 15.8502 58.2773 16.0039L57.6367 18.5596H46.1094C48.6006 13.8077 51.3484 9.10656 53.6475 4.27148C53.9995 3.52879 54.0696 2.51095 53.4297 1.99219C52.9366 1.58873 52.2253 1.64592 51.5977 1.70996C49.1385 1.95331 46.66 2.00471 44.1816 1.85742C44.2545 1.0979 44.8112 0.397002 45.5391 0.179688ZM25.6162 14.7236C29.3304 16.2413 32.7439 14.6661 36.5029 14.7236C37.2266 14.0512 31.5659 3.15213 30.1055 1.92188L25.6162 14.7236ZM88.8311 3.95117C88.5429 3.62467 88.0235 3.71481 87.7354 4.27832C86.0192 7.64035 84.9817 11.2971 83.2783 14.6719C83.9443 14.6078 84.6045 14.6274 85.2705 14.5762C86.0709 14.5249 86.8714 14.4736 87.6719 14.416L92.4814 14.1016C93.9732 14.0053 92.4109 11.9309 92.0459 11.3545C90.7203 9.27319 89.1894 7.05747 89.0293 4.52148C89.0165 4.27173 88.9331 4.07925 88.8242 3.95117H88.8311Z" fill="white"/>
</svg>
