<svg width="51" height="24" viewBox="0 0 51 24" fill="none" xmlns="http://www.w3.org/2000/svg">
<path d="M43.5859 16.9583C43.1456 13.392 47.6834 12.5539 49.9854 14.3929L49.1553 16.1732L48.8311 16.0521C48.0654 15.7491 47.2392 15.3427 46.4102 15.6361C45.8842 15.8221 45.6475 16.2677 45.9199 16.7904C46.1926 17.3133 48.0627 17.9443 48.6523 18.308C49.6956 18.951 50.432 19.8242 50.3145 21.1244C49.9925 24.703 44.858 24.5804 42.7344 22.7191C42.6535 22.6507 42.693 22.6123 42.7197 22.5365C42.9116 22.0035 43.5673 21.3488 43.7441 20.7591C44.7858 21.3579 45.8411 22.1658 47.1221 21.763C47.7613 21.5619 47.9964 20.742 47.5342 20.2591C46.4991 19.1791 43.8512 19.1118 43.5859 16.9583ZM35.0938 16.9603C34.6263 13.4193 39.2209 12.5432 41.4961 14.3939L40.666 16.1732C39.7953 15.8738 38.8882 15.2925 37.9199 15.6361C37.233 15.8806 37.1196 16.5666 37.6758 17.0453C39.0778 18.2521 42.0233 18.272 41.834 21.0501C41.5978 24.517 37.099 24.5053 34.7812 23.1068C34.6086 23.0025 34.1332 22.7693 34.2324 22.5374C34.4752 21.973 35.043 21.3687 35.2549 20.7601C36.2623 21.3414 37.5998 22.2838 38.8115 21.6927C39.3395 21.435 39.4411 20.6743 39.0449 20.2581C38.0257 19.1864 35.3756 19.1004 35.0938 16.9603ZM33.374 15.6771H29.874V17.6771H33.207V19.6771C32.2422 19.7847 31.1128 19.5615 30.1621 19.6732C30.0413 19.6874 29.9474 19.6831 29.874 19.8021V21.7611H33.374V23.8441H27.541V13.596H33.374V15.6771ZM5.91602 13.7191V15.4691C5.91545 15.4968 5.80691 15.5948 5.83203 15.6761H2.33301V17.6761H5.58203V19.6761C4.64725 19.7703 3.5391 19.5647 2.62012 19.6722C2.49918 19.6864 2.40543 19.6828 2.33203 19.8021V23.7171L2.20703 23.8421H0V13.5941H5.79102L5.91602 13.7191ZM9.09375 13.5941V23.8421H6.76074V13.5941H9.09375ZM17.1035 15.5521L16.9785 15.6761H14.6875V23.8421H12.3545V15.6761H10.0625L9.9375 15.5521V13.5941H17.1035V15.5521ZM24.3633 19.9261V13.7191L24.4893 13.5941H26.6963V23.8421H24.3633L20.2812 17.5101V23.8421H18.0723L17.9482 23.7171V13.7191L18.0723 13.5941H20.2393L24.3633 19.9261ZM14.248 0.304047V6.97006C14.2486 7.01476 14.4231 7.50564 14.4639 7.58725C14.8217 8.30006 15.7263 8.41103 16.4326 8.23764C17.0565 8.08418 17.3315 7.71626 17.46 7.09995C17.4892 6.95899 17.5801 6.40566 17.5801 6.30307V0.179047H19.8301V7.63608C19.8301 7.83458 19.4725 8.76884 19.3457 8.98569C18.1221 11.0731 13.8101 11.1324 12.5107 9.12241C12.3155 8.82014 11.915 7.79593 11.915 7.46909V0.179047H14.1221L14.248 0.304047ZM32.3291 6.38705C32.3292 6.48342 32.4332 7.03005 32.4658 7.16635C32.6084 7.75851 32.8752 8.09099 33.4766 8.23862C34.182 8.41199 35.0874 8.30009 35.4453 7.58823C35.4861 7.50671 35.6602 7.01665 35.6611 6.97104V0.179047H37.9941V7.46909C37.9941 7.79593 37.5937 8.81933 37.3984 9.12241C36.104 11.1257 31.7838 11.0681 30.5635 8.98569C30.4367 8.76884 30.0791 7.83458 30.0791 7.63608V0.179047H32.3291V6.38705ZM26.5176 0.00912476C26.9604 0.0341439 29.3104 0.503586 29.3633 0.968109L28.4648 2.84018C26.5448 1.70282 23.4219 2.31909 23.0791 4.82553C22.6663 7.83715 26.2064 9.18348 28.4717 7.67905L29.3535 9.67905C26.381 11.629 21.8669 10.3126 20.7852 6.82553C19.6326 3.11165 22.8254 -0.196858 26.5176 0.00912476Z" fill="white"/>
</svg>
