<svg width="84" height="27" viewBox="0 0 84 27" fill="none" xmlns="http://www.w3.org/2000/svg">
<g clip-path="url(#clip0_838_77)">
<path d="M1.0186 22.9538V22.7432H1.80933V23.4352C1.68768 23.5254 1.56603 23.6006 1.42917 23.6457C1.30752 23.6909 1.17066 23.7209 1.03381 23.7209C0.851331 23.7209 0.684061 23.6758 0.531997 23.6006C0.379933 23.5254 0.273488 23.4051 0.197457 23.2697C0.121425 23.1193 0.0758057 22.9538 0.0758057 22.7733C0.0758057 22.5928 0.106218 22.4274 0.197457 22.2769C0.273488 22.1265 0.379933 22.0062 0.531997 21.931C0.668854 21.8558 0.836124 21.8106 1.0186 21.8106C1.15546 21.8106 1.27711 21.8257 1.38355 21.8708C1.49 21.9159 1.58124 21.9761 1.64206 22.0513C1.70289 22.1265 1.74851 22.2318 1.77892 22.3521L1.55082 22.4123C1.52041 22.3221 1.49 22.2469 1.44438 22.1867C1.39876 22.1265 1.33793 22.0964 1.2619 22.0513C1.18587 22.0212 1.09463 22.0062 1.00339 22.0062C0.89695 22.0062 0.790505 22.0212 0.714473 22.0513C0.638441 22.0814 0.56241 22.1265 0.51679 22.1867C0.471171 22.2469 0.425552 22.307 0.395139 22.3672C0.34952 22.4875 0.319108 22.6079 0.319108 22.7432C0.319108 22.9087 0.34952 23.0441 0.410346 23.1644C0.471171 23.2697 0.547203 23.3599 0.653648 23.4051C0.760092 23.4652 0.881743 23.4803 1.00339 23.4803C1.10984 23.4803 1.21628 23.4652 1.32273 23.4201C1.42917 23.375 1.5052 23.3299 1.55082 23.2847V22.9388H1.0186V22.9538Z" fill="white"/>
<path d="M2.14386 23.6759V22.3372H2.35675V22.5477C2.40237 22.4575 2.46319 22.3973 2.50881 22.3672C2.55443 22.3372 2.60005 22.3221 2.66088 22.3221C2.73691 22.3221 2.81294 22.3522 2.90418 22.3973L2.82815 22.6079C2.76732 22.5778 2.7217 22.5628 2.66088 22.5628C2.61526 22.5628 2.56964 22.5778 2.52402 22.6079C2.4784 22.638 2.44799 22.6831 2.43278 22.7282C2.40237 22.8035 2.38716 22.8937 2.38716 22.999V23.706H2.14386V23.6759Z" fill="white"/>
<path d="M2.93506 22.9988C2.93506 22.7581 3.01109 22.5626 3.14795 22.4422C3.2696 22.3369 3.40646 22.2918 3.57373 22.2918C3.7562 22.2918 3.90827 22.352 4.02992 22.4723C4.15157 22.5926 4.21239 22.7581 4.21239 22.9687C4.21239 23.1341 4.18198 23.2695 4.13636 23.3748C4.09074 23.4801 4.01471 23.5553 3.90827 23.6004C3.80182 23.6606 3.69538 23.6757 3.57373 23.6757C3.39125 23.6757 3.22398 23.6155 3.11754 23.4952C2.99588 23.4049 2.93506 23.2394 2.93506 22.9988ZM3.17836 22.9988C3.17836 23.1642 3.20877 23.2996 3.28481 23.3899C3.36084 23.4801 3.45208 23.5252 3.57373 23.5252C3.68017 23.5252 3.78662 23.4801 3.86265 23.3899C3.93868 23.2996 3.96909 23.1793 3.96909 22.9988C3.96909 22.8333 3.92347 22.713 3.84744 22.6227C3.77141 22.5325 3.68017 22.4874 3.55852 22.4874C3.43687 22.4874 3.34563 22.5325 3.2696 22.6077C3.20877 22.713 3.17836 22.8333 3.17836 22.9988Z" fill="white"/>
<path d="M4.72893 23.6758L4.31836 22.3371H4.56166L4.77455 23.1042L4.85058 23.39C4.85058 23.3749 4.881 23.2847 4.92661 23.1192L5.1395 22.3371H5.38281L5.58049 23.1192L5.64131 23.3749L5.71735 23.1192L5.94544 22.3521H6.17354L5.74776 23.6908H5.50446L5.29157 22.8936L5.24595 22.668L4.97223 23.7059H4.72893V23.6758Z" fill="white"/>
<path d="M6.35596 22.0813V21.8256H6.58405V22.0813H6.35596ZM6.35596 23.6757V22.337H6.58405V23.6757H6.35596Z" fill="white"/>
<path d="M6.93378 23.6759V22.3372H7.14667V22.5328C7.25311 22.3823 7.38997 22.3071 7.57244 22.3071C7.64848 22.3071 7.72451 22.3222 7.80054 22.3523C7.86137 22.3823 7.92219 22.4124 7.9526 22.4726C7.98302 22.5177 8.01343 22.5779 8.02864 22.638C8.04384 22.6832 8.04384 22.7584 8.04384 22.8637V23.691H7.81575V22.8637C7.81575 22.7734 7.80054 22.6982 7.78533 22.6531C7.77013 22.608 7.73971 22.5779 7.6941 22.5478C7.64848 22.5177 7.60286 22.5027 7.52683 22.5027C7.43559 22.5027 7.34435 22.5328 7.26832 22.5929C7.19229 22.6531 7.16187 22.7734 7.16187 22.9389V23.6759H6.93378Z" fill="white"/>
<path d="M8.34835 23.7809L8.57645 23.811C8.59166 23.8862 8.60686 23.9314 8.65248 23.9614C8.71331 24.0066 8.78934 24.0216 8.88058 24.0216C8.98702 24.0216 9.06305 24.0066 9.12388 23.9614C9.1847 23.9163 9.21512 23.8562 9.24553 23.7809C9.26074 23.7358 9.26074 23.6305 9.26074 23.4952C9.15429 23.6155 9.03264 23.6757 8.88058 23.6757C8.6981 23.6757 8.54604 23.6155 8.4548 23.4801C8.34835 23.3447 8.30273 23.1943 8.30273 22.9988C8.30273 22.8784 8.33315 22.7581 8.37877 22.6378C8.42439 22.5325 8.50042 22.4422 8.57645 22.3821C8.66769 22.3219 8.77413 22.2918 8.89578 22.2918C9.06305 22.2918 9.1847 22.352 9.29115 22.4874V22.3219H9.50404V23.4801C9.50404 23.6907 9.48883 23.8411 9.44321 23.9163C9.39759 24.0066 9.33677 24.0667 9.24553 24.1269C9.15429 24.172 9.03264 24.2021 8.89578 24.2021C8.72851 24.2021 8.60686 24.172 8.50042 24.0968C8.39397 24.0367 8.34835 23.9314 8.34835 23.7809ZM8.54604 22.9837C8.54604 23.1642 8.57645 23.2846 8.65248 23.3748C8.72851 23.45 8.80454 23.4952 8.91099 23.4952C9.01743 23.4952 9.10867 23.45 9.1695 23.3748C9.24553 23.2996 9.27594 23.1642 9.27594 22.9988C9.27594 22.8333 9.24553 22.713 9.1695 22.6227C9.09347 22.5325 9.00223 22.5024 8.91099 22.5024C8.80454 22.5024 8.72851 22.5475 8.65248 22.6227C8.57645 22.6979 8.54604 22.8183 8.54604 22.9837Z" fill="white"/>
<path d="M11.4505 23.1795L11.6786 23.2096C11.6482 23.36 11.5873 23.4803 11.4961 23.5706C11.3897 23.6608 11.268 23.706 11.1159 23.706C10.9335 23.706 10.7814 23.6458 10.675 23.5255C10.5685 23.4051 10.5077 23.2397 10.5077 23.014C10.5077 22.8636 10.5381 22.7433 10.5837 22.638C10.6293 22.5327 10.7054 22.4424 10.8118 22.3973C10.9183 22.3372 11.0247 22.3221 11.1312 22.3221C11.2832 22.3221 11.4049 22.3522 11.4961 22.4274C11.5873 22.5026 11.6482 22.6079 11.6786 22.7433L11.4505 22.7734C11.4353 22.6831 11.3897 22.623 11.344 22.5778C11.2832 22.5327 11.2224 22.5026 11.1464 22.5026C11.0247 22.5026 10.9335 22.5477 10.8574 22.6229C10.7814 22.6982 10.751 22.8335 10.751 23.014C10.751 23.1945 10.7814 23.3299 10.8574 23.4051C10.9335 23.4803 11.0247 23.5255 11.1312 23.5255C11.2224 23.5255 11.2984 23.4954 11.3592 23.4502C11.4049 23.3901 11.4353 23.2998 11.4505 23.1795Z" fill="white"/>
<path d="M11.7852 22.9988C11.7852 22.7581 11.8612 22.5626 11.9981 22.4422C12.1198 22.3369 12.2566 22.2918 12.4239 22.2918C12.6064 22.2918 12.7584 22.352 12.8801 22.4723C13.0017 22.5926 13.0626 22.7581 13.0626 22.9687C13.0626 23.1341 13.0321 23.2695 12.9865 23.3748C12.9409 23.4801 12.8649 23.5553 12.7584 23.6004C12.652 23.6606 12.5455 23.6757 12.4239 23.6757C12.2414 23.6757 12.0741 23.6155 11.9677 23.4952C11.846 23.4049 11.7852 23.2394 11.7852 22.9988ZM12.0285 22.9988C12.0285 23.1642 12.0589 23.2996 12.135 23.3899C12.211 23.4801 12.3022 23.5252 12.4239 23.5252C12.5303 23.5252 12.6368 23.4801 12.7128 23.3899C12.7888 23.2996 12.8193 23.1793 12.8193 22.9988C12.8193 22.8333 12.7736 22.713 12.6976 22.6227C12.6216 22.5325 12.5303 22.4874 12.4087 22.4874C12.287 22.4874 12.1958 22.5325 12.1198 22.6077C12.0589 22.713 12.0285 22.8333 12.0285 22.9988Z" fill="white"/>
<path d="M14.2175 23.6758V23.4802C14.111 23.6307 13.9742 23.7059 13.7917 23.7059C13.7157 23.7059 13.6396 23.6908 13.5636 23.6607C13.4876 23.6307 13.442 23.5855 13.4116 23.5404C13.3811 23.4953 13.3507 23.4351 13.3355 23.3749C13.3203 23.3298 13.3203 23.2546 13.3203 23.1644V22.3371H13.5484V23.0741C13.5484 23.1944 13.5484 23.2697 13.5636 23.3148C13.5788 23.3749 13.6092 23.4201 13.6549 23.4502C13.7005 23.4802 13.7613 23.4953 13.8221 23.4953C13.8982 23.4953 13.959 23.4802 14.0198 23.4502C14.0806 23.4201 14.1263 23.3749 14.1415 23.3148C14.1719 23.2546 14.1719 23.1644 14.1719 23.0591V22.3371H14.4V23.6758H14.2175Z" fill="white"/>
<path d="M14.7801 23.6759V22.3372H14.993V22.5328C15.0994 22.3823 15.2363 22.3071 15.4188 22.3071C15.4948 22.3071 15.5708 22.3222 15.6469 22.3523C15.7077 22.3823 15.7685 22.4124 15.7989 22.4726C15.8293 22.5177 15.8597 22.5779 15.8749 22.638C15.8902 22.6832 15.8902 22.7584 15.8902 22.8637V23.691H15.6621V22.8637C15.6621 22.7734 15.6469 22.6982 15.6316 22.6531C15.6164 22.608 15.586 22.5779 15.5404 22.5478C15.4948 22.5177 15.4492 22.5027 15.3731 22.5027C15.2819 22.5027 15.1907 22.5328 15.1146 22.5929C15.0386 22.6531 15.0082 22.7734 15.0082 22.9389V23.6759H14.7801Z" fill="white"/>
<path d="M16.7265 23.4651L16.7569 23.6606C16.6961 23.6757 16.6352 23.6757 16.5896 23.6757C16.5136 23.6757 16.4376 23.6606 16.3919 23.6305C16.3463 23.6005 16.3159 23.5704 16.3007 23.5253C16.2855 23.4801 16.2703 23.3899 16.2703 23.2545V22.4874H16.103V22.3069H16.2703V21.976L16.4984 21.8406V22.3069H16.7265V22.4874H16.4984V23.2695C16.4984 23.3297 16.4984 23.3748 16.5136 23.3899C16.5288 23.4049 16.5288 23.42 16.5592 23.435C16.5744 23.45 16.6048 23.45 16.6353 23.45C16.6657 23.4801 16.6961 23.4801 16.7265 23.4651Z" fill="white"/>
<path d="M16.9557 23.6759V22.3372H17.1686V22.5477C17.2143 22.4575 17.2751 22.3973 17.3207 22.3672C17.3663 22.3372 17.4119 22.3221 17.4728 22.3221C17.5488 22.3221 17.6248 22.3522 17.7161 22.3973L17.64 22.6079C17.5792 22.5778 17.5336 22.5628 17.4728 22.5628C17.4271 22.5628 17.3815 22.5778 17.3359 22.6079C17.2903 22.638 17.2599 22.6831 17.2447 22.7282C17.2143 22.8035 17.1991 22.8937 17.1991 22.999V23.706H16.9557V23.6759Z" fill="white"/>
<path d="M17.8214 24.1873L17.7909 23.9767C17.8366 23.9918 17.8822 23.9918 17.9278 23.9918C17.9734 23.9918 18.019 23.9767 18.0495 23.9617C18.0799 23.9466 18.1103 23.9165 18.1255 23.8865C18.1407 23.8564 18.1559 23.8113 18.2015 23.721C18.2015 23.706 18.2167 23.6909 18.2167 23.6608L17.6997 22.3221H17.943L18.2319 23.1043C18.2623 23.2096 18.308 23.2998 18.3232 23.4202C18.3536 23.3149 18.384 23.2096 18.4144 23.1193L18.7033 22.3372H18.9314L18.4144 23.706C18.3536 23.8564 18.3232 23.9617 18.2928 24.0068C18.2471 24.082 18.2015 24.1422 18.1559 24.1723C18.1103 24.2023 18.0342 24.2174 17.9734 24.2174C17.9278 24.2174 17.867 24.2174 17.8214 24.1873Z" fill="white"/>
<path d="M20.072 23.6757H19.8591V21.8256H20.0872V22.4874C20.1785 22.3671 20.3153 22.3069 20.4522 22.3069C20.5282 22.3069 20.6194 22.3219 20.6955 22.352C20.7715 22.3821 20.8323 22.4272 20.878 22.4874C20.9236 22.5476 20.9692 22.6228 20.9844 22.698C21.0148 22.7882 21.03 22.8785 21.03 22.9687C21.03 23.1944 20.9692 23.3749 20.8627 23.4952C20.7411 23.6155 20.6042 23.6757 20.4522 23.6757C20.2849 23.6757 20.1633 23.6155 20.072 23.4802V23.6757ZM20.072 22.9988C20.072 23.1643 20.0872 23.2696 20.1328 23.3448C20.2089 23.4651 20.3001 23.5253 20.4218 23.5253C20.5282 23.5253 20.6042 23.4802 20.6803 23.3899C20.7563 23.2997 20.7867 23.1793 20.7867 22.9988C20.7867 22.8183 20.7563 22.698 20.6803 22.6077C20.6042 22.5175 20.5282 22.4874 20.4218 22.4874C20.3153 22.4874 20.2393 22.5325 20.1633 22.6228C20.1024 22.713 20.072 22.8334 20.072 22.9988Z" fill="white"/>
<path d="M21.3044 24.1873L21.274 23.9767C21.3196 23.9918 21.3652 23.9918 21.4108 23.9918C21.4565 23.9918 21.5021 23.9767 21.5325 23.9617C21.5629 23.9466 21.5933 23.9165 21.6085 23.8865C21.6237 23.8564 21.6389 23.8113 21.6845 23.721C21.6845 23.706 21.6998 23.6909 21.6998 23.6608L21.1827 22.3221H21.426L21.715 23.1043C21.7454 23.2096 21.791 23.2998 21.8062 23.4202C21.8366 23.3149 21.867 23.2096 21.8974 23.1193L22.1864 22.3372H22.4145L21.8974 23.706C21.8366 23.8564 21.8062 23.9617 21.7758 24.0068C21.7302 24.082 21.6845 24.1422 21.6389 24.1723C21.5933 24.2023 21.5173 24.2174 21.4565 24.2174C21.4108 24.2174 21.35 24.2174 21.3044 24.1873Z" fill="white"/>
<path d="M0.0760146 26.4436L0.30411 26.4737C0.319317 26.5489 0.334523 26.594 0.380142 26.6241C0.440968 26.6692 0.516999 26.6842 0.608238 26.6842C0.714682 26.6842 0.790714 26.6692 0.85154 26.6241C0.912365 26.579 0.942778 26.5188 0.973191 26.4436C0.988397 26.3984 0.988397 26.2932 0.988397 26.1578C0.881952 26.2781 0.760301 26.3383 0.608238 26.3383C0.425761 26.3383 0.273697 26.2781 0.182459 26.1427C0.0760146 26.0074 0.0303955 25.8569 0.0303955 25.6614C0.0303955 25.5411 0.0608082 25.4207 0.106427 25.3004C0.152046 25.1951 0.228078 25.1049 0.30411 25.0447C0.395348 24.9845 0.501793 24.9544 0.623444 24.9544C0.790714 24.9544 0.912365 25.0146 1.01881 25.15V24.9845H1.2317V26.1427C1.2317 26.3533 1.21649 26.5037 1.17087 26.579C1.12525 26.6692 1.06443 26.7294 0.973191 26.7895C0.881952 26.8347 0.760301 26.8647 0.623444 26.8647C0.456174 26.8647 0.334523 26.8347 0.228078 26.7595C0.121634 26.6993 0.0760146 26.594 0.0760146 26.4436ZM0.273697 25.6464C0.273697 25.8269 0.30411 25.9472 0.380142 26.0374C0.456174 26.1127 0.532206 26.1578 0.63865 26.1578C0.745095 26.1578 0.836333 26.1127 0.897159 26.0374C0.973191 25.9622 1.0036 25.8269 1.0036 25.6614C1.0036 25.4959 0.973191 25.3756 0.897159 25.2854C0.821127 25.1951 0.729889 25.165 0.63865 25.165C0.532206 25.165 0.456174 25.2101 0.380142 25.2854C0.30411 25.3606 0.273697 25.4809 0.273697 25.6464Z" fill="white"/>
<path d="M1.56665 26.3381V24.9994H1.77954V25.21C1.82516 25.1197 1.88598 25.0596 1.9316 25.0295C1.97722 24.9994 2.02284 24.9843 2.08367 24.9843C2.1597 24.9843 2.23573 25.0144 2.32697 25.0596L2.25094 25.2701C2.19011 25.2401 2.14449 25.225 2.08367 25.225C2.03805 25.225 1.99243 25.2401 1.94681 25.2701C1.90119 25.3002 1.87078 25.3453 1.85557 25.3905C1.82516 25.4657 1.80995 25.5559 1.80995 25.6612V26.3682H1.56665V26.3381Z" fill="white"/>
<path d="M2.35724 25.6614C2.35724 25.4207 2.43327 25.2252 2.57013 25.1049C2.69178 24.9996 2.82864 24.9544 2.99591 24.9544C3.17838 24.9544 3.33045 25.0146 3.4521 25.1349C3.57375 25.2553 3.63457 25.4207 3.63457 25.6313C3.63457 25.7968 3.60416 25.9322 3.55854 26.0374C3.51292 26.1427 3.43689 26.2179 3.33045 26.2631C3.224 26.3232 3.11756 26.3383 2.99591 26.3383C2.81343 26.3383 2.64616 26.2781 2.53972 26.1578C2.41806 26.0675 2.35724 25.9021 2.35724 25.6614ZM2.60054 25.6614C2.60054 25.8269 2.63095 25.9622 2.70699 26.0525C2.78302 26.1427 2.87426 26.1879 2.99591 26.1879C3.10235 26.1879 3.2088 26.1427 3.28483 26.0525C3.36086 25.9622 3.39127 25.8419 3.39127 25.6614C3.39127 25.4959 3.34565 25.3756 3.26962 25.2854C3.19359 25.1951 3.10235 25.15 2.9807 25.15C2.85905 25.15 2.76781 25.1951 2.69178 25.2703C2.63095 25.3756 2.60054 25.4959 2.60054 25.6614Z" fill="white"/>
<path d="M4.15111 26.3381L3.74054 24.9994H3.98384L4.19673 25.7665L4.27276 26.0523C4.27276 26.0372 4.30318 25.947 4.34879 25.7815L4.56168 24.9994H4.80499L5.00267 25.7815L5.06349 26.0372L5.13953 25.7815L5.36762 25.0144H5.59572L5.16994 26.3531H4.92664L4.71375 25.5559L4.66813 25.3303L4.39441 26.3682H4.15111V26.3381Z" fill="white"/>
<path d="M5.77814 24.7439V24.4882H6.00623V24.7439H5.77814ZM5.77814 26.3383V24.9996H6.00623V26.3383H5.77814Z" fill="white"/>
<path d="M6.35596 26.3382V24.9995H6.56885V25.195C6.67529 25.0446 6.81215 24.9694 6.99462 24.9694C7.07066 24.9694 7.14669 24.9845 7.22272 25.0145C7.28355 25.0446 7.34437 25.0747 7.37478 25.1349C7.4052 25.18 7.43561 25.2402 7.45082 25.3003C7.46602 25.3455 7.46602 25.4207 7.46602 25.526V26.3533H7.23793V25.541C7.23793 25.4508 7.22272 25.3755 7.20751 25.3304C7.19231 25.2853 7.16189 25.2552 7.11628 25.2251C7.07066 25.195 7.02504 25.18 6.94901 25.18C6.85777 25.18 6.76653 25.2101 6.6905 25.2703C6.61447 25.3304 6.58405 25.4508 6.58405 25.6162V26.3533H6.35596V26.3382Z" fill="white"/>
<path d="M7.77053 26.4436L7.99863 26.4737C8.01384 26.5489 8.02904 26.594 8.07466 26.6241C8.13549 26.6692 8.21152 26.6842 8.30276 26.6842C8.4092 26.6842 8.48523 26.6692 8.54606 26.6241C8.60688 26.579 8.6373 26.5188 8.66771 26.4436C8.68292 26.3984 8.68292 26.2932 8.68292 26.1578C8.57647 26.2781 8.45482 26.3383 8.30276 26.3383C8.12028 26.3383 7.96822 26.2781 7.87698 26.1427C7.77053 26.0074 7.72491 25.8569 7.72491 25.6614C7.72491 25.5411 7.75533 25.4207 7.80095 25.3004C7.84657 25.1951 7.9226 25.1049 7.99863 25.0447C8.08987 24.9845 8.19631 24.9544 8.31796 24.9544C8.48523 24.9544 8.60688 25.0146 8.71333 25.15V24.9845H8.92622V26.1427C8.92622 26.3533 8.91101 26.5037 8.86539 26.579C8.81977 26.6692 8.75895 26.7294 8.66771 26.7895C8.57647 26.8347 8.45482 26.8647 8.31796 26.8647C8.15069 26.8647 8.02904 26.8347 7.9226 26.7595C7.81615 26.6993 7.77053 26.594 7.77053 26.4436ZM7.96822 25.6464C7.96822 25.8269 7.99863 25.9472 8.07466 26.0374C8.15069 26.1127 8.22672 26.1578 8.33317 26.1578C8.43961 26.1578 8.53085 26.1127 8.59168 26.0374C8.66771 25.9622 8.69812 25.8269 8.69812 25.6614C8.69812 25.4959 8.66771 25.3756 8.59168 25.2854C8.51565 25.1951 8.42441 25.165 8.33317 25.165C8.22672 25.165 8.15069 25.2101 8.07466 25.2854C7.99863 25.3606 7.96822 25.4809 7.96822 25.6464Z" fill="white"/>
<path d="M10.8727 25.8417L11.1008 25.8718C11.0703 26.0222 11.0095 26.1426 10.9183 26.2328C10.8118 26.3231 10.6902 26.3682 10.5381 26.3682C10.3556 26.3682 10.2036 26.308 10.0971 26.1877C9.9907 26.0674 9.92987 25.9019 9.92987 25.6763C9.92987 25.5258 9.96028 25.4055 10.0059 25.3002C10.0515 25.1949 10.1276 25.1047 10.234 25.0596C10.3404 24.9994 10.4469 24.9843 10.5533 24.9843C10.7054 24.9843 10.827 25.0144 10.9183 25.0896C11.0095 25.1648 11.0703 25.2701 11.1008 25.4055L10.8727 25.4356C10.8575 25.3453 10.8118 25.2852 10.7662 25.2401C10.7054 25.1949 10.6446 25.1648 10.5685 25.1648C10.4469 25.1648 10.3556 25.21 10.2796 25.2852C10.2036 25.3604 10.1732 25.4958 10.1732 25.6763C10.1732 25.8568 10.2036 25.9921 10.2796 26.0674C10.3556 26.1426 10.4469 26.1877 10.5533 26.1877C10.6446 26.1877 10.7206 26.1576 10.7814 26.1125C10.827 26.0523 10.8575 25.9621 10.8727 25.8417Z" fill="white"/>
<path d="M11.2074 25.6614C11.2074 25.4207 11.2834 25.2252 11.4203 25.1049C11.5419 24.9996 11.6788 24.9544 11.8461 24.9544C12.0285 24.9544 12.1806 25.0146 12.3023 25.1349C12.4239 25.2553 12.4847 25.4207 12.4847 25.6313C12.4847 25.7968 12.4543 25.9322 12.4087 26.0374C12.3631 26.1427 12.2871 26.2179 12.1806 26.2631C12.0742 26.3232 11.9677 26.3383 11.8461 26.3383C11.6636 26.3383 11.4963 26.2781 11.3899 26.1578C11.2682 26.0675 11.2074 25.9021 11.2074 25.6614ZM11.4507 25.6614C11.4507 25.8269 11.4811 25.9622 11.5571 26.0525C11.6332 26.1427 11.7244 26.1879 11.8461 26.1879C11.9525 26.1879 12.059 26.1427 12.135 26.0525C12.211 25.9622 12.2414 25.8419 12.2414 25.6614C12.2414 25.4959 12.1958 25.3756 12.1198 25.2854C12.0437 25.1951 11.9525 25.15 11.8309 25.15C11.7092 25.15 11.618 25.1951 11.5419 25.2703C11.4811 25.3756 11.4507 25.4959 11.4507 25.6614Z" fill="white"/>
<path d="M12.7437 26.3383V24.9996H12.9413V25.1801C12.987 25.1199 13.0478 25.0598 13.1086 25.0146C13.1846 24.9695 13.2607 24.9545 13.3519 24.9545C13.4584 24.9545 13.5344 24.9695 13.5952 25.0146C13.656 25.0598 13.7017 25.1199 13.7321 25.1801C13.8385 25.0297 13.9754 24.9394 14.1578 24.9394C14.2947 24.9394 14.4011 24.9695 14.462 25.0447C14.538 25.1199 14.5684 25.2252 14.5684 25.3907V26.3082H14.3403V25.4659C14.3403 25.3756 14.3403 25.3155 14.3251 25.2703C14.3099 25.2252 14.2795 25.1951 14.2491 25.1801C14.2035 25.15 14.1578 25.15 14.1122 25.15C14.021 25.15 13.945 25.1801 13.8689 25.2403C13.8081 25.3004 13.7777 25.4057 13.7777 25.5411V26.3233H13.5496V25.4508C13.5496 25.3455 13.5344 25.2703 13.4888 25.2252C13.4584 25.1801 13.3975 25.15 13.3063 25.15C13.2455 25.15 13.1846 25.165 13.1238 25.1951C13.063 25.2252 13.0326 25.2854 13.0022 25.3456C12.9717 25.4057 12.9717 25.511 12.9717 25.6313V26.3233H12.7437V26.3383Z" fill="white"/>
<path d="M14.933 26.8495V24.9994H15.1459V25.1799C15.1916 25.1047 15.2524 25.0596 15.3132 25.0295C15.374 24.9994 15.4501 24.9843 15.5413 24.9843C15.663 24.9843 15.7542 25.0144 15.8454 25.0746C15.9367 25.1348 15.9975 25.21 16.0431 25.3303C16.0887 25.4356 16.1039 25.5559 16.1039 25.6763C16.1039 25.8116 16.0735 25.932 16.0279 26.0523C15.9823 26.1576 15.9063 26.2479 15.815 26.308C15.7238 26.3682 15.6173 26.3983 15.5109 26.3983C15.4349 26.3983 15.3588 26.3832 15.298 26.3531C15.2372 26.3231 15.1916 26.2779 15.1459 26.2328V26.8796H14.933V26.8495ZM15.1307 25.6763C15.1307 25.8417 15.1611 25.9771 15.2372 26.0523C15.3132 26.1275 15.3892 26.1726 15.4957 26.1726C15.6021 26.1726 15.6782 26.1275 15.7542 26.0373C15.8302 25.947 15.8606 25.8267 15.8606 25.6462C15.8606 25.4807 15.8302 25.3453 15.7542 25.2701C15.6782 25.1799 15.6021 25.1498 15.4957 25.1498C15.4044 25.1498 15.3132 25.1949 15.2372 25.2852C15.1763 25.3754 15.1307 25.5108 15.1307 25.6763Z" fill="white"/>
<path d="M17.2591 26.1726C17.1679 26.2479 17.0918 26.293 17.0158 26.3231C16.9398 26.3531 16.8485 26.3682 16.7573 26.3682C16.6052 26.3682 16.4988 26.3381 16.4075 26.2629C16.3315 26.1877 16.2859 26.0974 16.2859 25.9921C16.2859 25.932 16.3011 25.8718 16.3315 25.8116C16.3619 25.7515 16.4075 25.7214 16.4532 25.6763C16.4988 25.6462 16.5596 25.6161 16.6204 25.6011C16.666 25.586 16.7269 25.571 16.8181 25.571C17.0006 25.5559 17.1374 25.5258 17.2287 25.4958C17.2287 25.4657 17.2287 25.4506 17.2287 25.4356C17.2287 25.3453 17.2135 25.2852 17.1679 25.2401C17.107 25.1949 17.0158 25.1648 16.9093 25.1648C16.8029 25.1648 16.7269 25.1799 16.666 25.225C16.6204 25.2551 16.5748 25.3303 16.5444 25.4206L16.3163 25.3905C16.3315 25.3002 16.3771 25.225 16.4227 25.1648C16.4684 25.1047 16.5444 25.0596 16.6204 25.0295C16.7117 24.9994 16.8181 24.9843 16.9246 24.9843C17.0462 24.9843 17.1374 24.9994 17.2135 25.0295C17.2895 25.0596 17.3351 25.0896 17.3655 25.1348C17.396 25.1799 17.4264 25.225 17.4416 25.2852C17.4416 25.3303 17.4568 25.3905 17.4568 25.4958V25.7966C17.4568 26.0072 17.4568 26.1426 17.472 26.2027C17.4872 26.2629 17.5024 26.308 17.5328 26.3682H17.2895C17.2895 26.293 17.2743 26.2328 17.2591 26.1726ZM17.2439 25.6612C17.1679 25.6913 17.031 25.7214 16.8637 25.7515C16.7725 25.7665 16.6965 25.7816 16.666 25.7966C16.6204 25.8116 16.59 25.8417 16.5748 25.8718C16.5596 25.9019 16.5444 25.947 16.5444 25.9771C16.5444 26.0373 16.5748 26.0824 16.6204 26.1275C16.666 26.1726 16.7421 26.1877 16.8181 26.1877C16.9093 26.1877 16.9854 26.1726 17.0614 26.1275C17.1374 26.0824 17.1831 26.0373 17.2135 25.9771C17.2439 25.932 17.2439 25.8568 17.2439 25.7515V25.6612Z" fill="white"/>
<path d="M17.8376 26.3382V24.9995H18.0505V25.195C18.157 25.0446 18.2938 24.9694 18.4763 24.9694C18.5523 24.9694 18.6284 24.9845 18.7044 25.0145C18.7652 25.0446 18.8261 25.0747 18.8565 25.1349C18.8869 25.18 18.9173 25.2402 18.9325 25.3003C18.9477 25.3455 18.9477 25.4207 18.9477 25.526V26.3533H18.7044V25.541C18.7044 25.4508 18.6892 25.3755 18.674 25.3304C18.6588 25.2853 18.6284 25.2552 18.5828 25.2251C18.5371 25.195 18.4915 25.18 18.4155 25.18C18.3242 25.18 18.233 25.2101 18.157 25.2703C18.0809 25.3304 18.0505 25.4508 18.0505 25.6162V26.3533H17.8376V26.3382Z" fill="white"/>
<path d="M19.282 24.7439V24.4882H19.5101V24.7439H19.282ZM19.282 26.3383V24.9996H19.5101V26.3383H19.282Z" fill="white"/>
<path d="M20.7872 25.902L21.0305 25.9321C21.0001 26.0675 20.9241 26.1728 20.8177 26.248C20.7112 26.3232 20.5896 26.3683 20.4375 26.3683C20.2398 26.3683 20.0878 26.3081 19.9661 26.1878C19.8444 26.0675 19.7988 25.902 19.7988 25.6764C19.7988 25.4508 19.8597 25.2703 19.9813 25.1499C20.103 25.0296 20.255 24.9694 20.4375 24.9694C20.62 24.9694 20.772 25.0296 20.8785 25.1499C21.0001 25.2703 21.0458 25.4508 21.0458 25.6613C21.0458 25.6764 21.0458 25.6914 21.0458 25.7215H20.0421C20.0573 25.8719 20.0878 25.9772 20.1638 26.0524C20.2398 26.1276 20.3311 26.1728 20.4527 26.1728C20.5439 26.1728 20.6048 26.1577 20.6656 26.1126C20.7112 26.0675 20.7568 26.0073 20.7872 25.902ZM20.0421 25.541H20.8024C20.7872 25.4357 20.7568 25.3455 20.7112 25.2853C20.6352 25.195 20.5439 25.1499 20.4223 25.1499C20.3158 25.1499 20.2246 25.18 20.1638 25.2552C20.0878 25.3304 20.0421 25.4207 20.0421 25.541Z" fill="white"/>
<path d="M21.2281 25.9319L21.4562 25.9019C21.4715 25.9921 21.5019 26.0673 21.5627 26.1125C21.6235 26.1576 21.6995 26.1877 21.806 26.1877C21.9124 26.1877 21.9885 26.1726 22.0341 26.1275C22.0797 26.0824 22.1101 26.0372 22.1101 25.9771C22.1101 25.9319 22.0949 25.8868 22.0493 25.8567C22.0189 25.8417 21.9428 25.8116 21.8212 25.7815C21.6539 25.7364 21.5323 25.7063 21.4714 25.6762C21.4106 25.6462 21.3498 25.601 21.3194 25.5559C21.289 25.4957 21.2738 25.4356 21.2738 25.3754C21.2738 25.3152 21.289 25.2551 21.3194 25.2099C21.3498 25.1648 21.3802 25.1197 21.4258 25.0896C21.4562 25.0595 21.5171 25.0445 21.5779 25.0294C21.6387 25.0144 21.6995 24.9994 21.7756 24.9994C21.882 24.9994 21.9733 25.0144 22.0493 25.0445C22.1253 25.0746 22.1861 25.1197 22.2318 25.1648C22.2774 25.2099 22.2926 25.2852 22.3078 25.3754L22.0797 25.4055C22.0645 25.3303 22.0341 25.2852 21.9885 25.24C21.9428 25.1949 21.8668 25.1799 21.7756 25.1799C21.6691 25.1799 21.5931 25.1949 21.5475 25.225C21.5019 25.2551 21.4867 25.3002 21.4867 25.3453C21.4867 25.3754 21.5019 25.4055 21.5171 25.4205C21.5323 25.4506 21.5627 25.4657 21.6083 25.4807C21.6387 25.4957 21.6995 25.5108 21.806 25.5409C21.9733 25.586 22.0797 25.6161 22.1405 25.6462C22.2014 25.6762 22.2622 25.7063 22.2926 25.7665C22.323 25.8116 22.3534 25.8868 22.3534 25.962C22.3534 26.0372 22.3382 26.1125 22.2926 26.1726C22.247 26.2328 22.1862 26.293 22.0949 26.323C22.0037 26.3531 21.9124 26.3832 21.806 26.3832C21.6235 26.3832 21.5019 26.3531 21.4106 26.2779C21.3042 26.1877 21.2434 26.0824 21.2281 25.9319Z" fill="white"/>
<path d="M24.2228 26.1726C24.1316 26.2479 24.0556 26.293 23.9795 26.3231C23.9035 26.3531 23.8123 26.3682 23.721 26.3682C23.569 26.3682 23.4625 26.3381 23.3713 26.2629C23.2953 26.1877 23.2496 26.0974 23.2496 25.9921C23.2496 25.932 23.2648 25.8718 23.2953 25.8116C23.3257 25.7515 23.3713 25.7214 23.4169 25.6763C23.4625 25.6462 23.5234 25.6161 23.5842 25.6011C23.6298 25.586 23.6906 25.571 23.7819 25.571C23.9643 25.5559 24.1012 25.5258 24.1924 25.4958C24.1924 25.4657 24.1924 25.4506 24.1924 25.4356C24.1924 25.3453 24.1772 25.2852 24.1316 25.2401C24.0708 25.1949 23.9795 25.1648 23.8731 25.1648C23.7667 25.1648 23.6906 25.1799 23.6298 25.225C23.5842 25.2551 23.5386 25.3303 23.5081 25.4206L23.28 25.3905C23.2953 25.3002 23.3409 25.225 23.3865 25.1648C23.4321 25.1047 23.5081 25.0596 23.5842 25.0295C23.6754 24.9994 23.7819 24.9843 23.8883 24.9843C24.01 24.9843 24.1012 24.9994 24.1772 25.0295C24.2533 25.0596 24.2989 25.0896 24.3293 25.1348C24.3597 25.1799 24.3901 25.225 24.4053 25.2852C24.4053 25.3303 24.4205 25.3905 24.4205 25.4958V25.7966C24.4205 26.0072 24.4205 26.1426 24.4357 26.2027C24.4509 26.2629 24.4661 26.308 24.4966 26.3682H24.2533C24.2533 26.293 24.238 26.2328 24.2228 26.1726ZM24.2076 25.6612C24.1316 25.6913 23.9947 25.7214 23.8275 25.7515C23.7362 25.7665 23.6602 25.7816 23.6298 25.7966C23.5842 25.8116 23.5538 25.8417 23.5386 25.8718C23.5233 25.9019 23.5081 25.947 23.5081 25.9771C23.5081 26.0373 23.5386 26.0824 23.5842 26.1275C23.6298 26.1726 23.7058 26.1877 23.7819 26.1877C23.8731 26.1877 23.9491 26.1726 24.0252 26.1275C24.1012 26.0824 24.1468 26.0373 24.1772 25.9771C24.2076 25.932 24.2076 25.8568 24.2076 25.7515V25.6612Z" fill="white"/>
<path d="M24.8009 26.3382V24.9995H25.0138V25.195C25.1202 25.0446 25.2571 24.9694 25.4396 24.9694C25.5156 24.9694 25.5916 24.9845 25.6677 25.0145C25.7285 25.0446 25.7893 25.0747 25.8197 25.1349C25.8501 25.18 25.8806 25.2402 25.8958 25.3003C25.911 25.3455 25.911 25.4207 25.911 25.526V26.3533H25.6829V25.541C25.6829 25.4508 25.6677 25.3755 25.6525 25.3304C25.6373 25.2853 25.6068 25.2552 25.5612 25.2251C25.5156 25.195 25.47 25.18 25.394 25.18C25.3027 25.18 25.2115 25.2101 25.1354 25.2703C25.0594 25.3304 25.029 25.4508 25.029 25.6162V26.3533H24.8009V26.3382Z" fill="white"/>
<path d="M27.1281 26.3383V26.1728C27.0369 26.3082 26.9152 26.3684 26.748 26.3684C26.6415 26.3684 26.5351 26.3383 26.4438 26.2781C26.3526 26.218 26.2766 26.1428 26.2309 26.0375C26.1853 25.9322 26.1549 25.8118 26.1549 25.6765C26.1549 25.5411 26.1701 25.4207 26.2157 25.3155C26.2614 25.2102 26.3222 25.1199 26.4134 25.0597C26.5047 24.9996 26.6111 24.9695 26.7175 24.9695C26.7936 24.9695 26.8696 24.9845 26.9304 25.0146C26.9913 25.0447 27.0521 25.0898 27.0825 25.15V24.4882H27.3106V26.3383H27.1281ZM26.3982 25.6765C26.3982 25.8419 26.4286 25.9773 26.5047 26.0675C26.5807 26.1578 26.6567 26.1879 26.7632 26.1879C26.8696 26.1879 26.9456 26.1428 27.0217 26.0675C27.0977 25.9923 27.1281 25.857 27.1281 25.6915C27.1281 25.511 27.0977 25.3756 27.0217 25.2854C26.9456 25.1951 26.8696 25.15 26.7632 25.15C26.6567 25.15 26.5807 25.1951 26.5047 25.2703C26.4438 25.3606 26.3982 25.496 26.3982 25.6765Z" fill="white"/>
<path d="M28.4202 26.8495V24.9994H28.6331V25.1799C28.6787 25.1047 28.7395 25.0596 28.8003 25.0295C28.8612 24.9994 28.9372 24.9843 29.0284 24.9843C29.1501 24.9843 29.2413 25.0144 29.3325 25.0746C29.4238 25.1348 29.4846 25.21 29.5302 25.3303C29.5759 25.4506 29.5911 25.5559 29.5911 25.6763C29.5911 25.8116 29.5606 25.932 29.515 26.0523C29.4694 26.1576 29.3934 26.2479 29.3021 26.308C29.2109 26.3682 29.1045 26.3983 28.998 26.3983C28.922 26.3983 28.8459 26.3832 28.7851 26.3531C28.7243 26.3231 28.6787 26.2779 28.6331 26.2328V26.8796H28.4202V26.8495ZM28.6331 25.6763C28.6331 25.8417 28.6635 25.9771 28.7395 26.0523C28.8155 26.1275 28.8916 26.1726 28.998 26.1726C29.1045 26.1726 29.1805 26.1275 29.2565 26.0373C29.3325 25.947 29.363 25.8267 29.363 25.6462C29.363 25.4807 29.3325 25.3453 29.2565 25.2701C29.1805 25.1799 29.1045 25.1498 28.998 25.1498C28.9068 25.1498 28.8155 25.1949 28.7395 25.2852C28.6787 25.3754 28.6331 25.5108 28.6331 25.6763Z" fill="white"/>
<path d="M30.808 25.902L31.0513 25.9321C31.0209 26.0675 30.9449 26.1728 30.8384 26.248C30.732 26.3232 30.6103 26.3683 30.4582 26.3683C30.2606 26.3683 30.1085 26.3081 29.9868 26.1878C29.8652 26.0675 29.8196 25.902 29.8196 25.6764C29.8196 25.4508 29.8804 25.2703 30.0021 25.1499C30.1237 25.0296 30.2758 24.9694 30.4582 24.9694C30.6407 24.9694 30.7928 25.0296 30.8992 25.1499C31.0209 25.2703 31.0665 25.4508 31.0665 25.6613C31.0665 25.6764 31.0665 25.6914 31.0665 25.7215H30.0629C30.0781 25.8719 30.1085 25.9772 30.1845 26.0524C30.2606 26.1276 30.3518 26.1728 30.4735 26.1728C30.5647 26.1728 30.6255 26.1577 30.6863 26.1126C30.732 26.0675 30.7776 26.0073 30.808 25.902ZM30.0477 25.541H30.808C30.7928 25.4357 30.7624 25.3455 30.7168 25.2853C30.6407 25.195 30.5495 25.1499 30.4278 25.1499C30.3214 25.1499 30.2302 25.18 30.1693 25.2552C30.1085 25.3304 30.0629 25.4207 30.0477 25.541Z" fill="white"/>
<path d="M31.2489 25.6614C31.2489 25.4207 31.3249 25.2252 31.4618 25.1049C31.5834 24.9996 31.7203 24.9544 31.8876 24.9544C32.07 24.9544 32.2221 25.0146 32.3438 25.1349C32.4654 25.2553 32.5262 25.4207 32.5262 25.6313C32.5262 25.7968 32.4958 25.9322 32.4502 26.0374C32.4046 26.1427 32.3286 26.2179 32.2221 26.2631C32.1157 26.3232 32.0092 26.3383 31.8876 26.3383C31.7051 26.3383 31.5378 26.2781 31.4314 26.1578C31.3097 26.0675 31.2489 25.9021 31.2489 25.6614ZM31.477 25.6614C31.477 25.8269 31.5074 25.9622 31.5834 26.0525C31.6595 26.1427 31.7507 26.1879 31.8724 26.1879C31.9788 26.1879 32.0853 26.1427 32.1613 26.0525C32.2373 25.9622 32.2677 25.8419 32.2677 25.6614C32.2677 25.4959 32.2221 25.3756 32.1461 25.2854C32.07 25.1951 31.9788 25.15 31.8572 25.15C31.7355 25.15 31.6443 25.1951 31.5682 25.2703C31.5226 25.3756 31.477 25.4959 31.477 25.6614Z" fill="white"/>
<path d="M32.7841 26.8495V24.9994H32.9969V25.1799C33.0426 25.1047 33.1034 25.0596 33.1642 25.0295C33.225 24.9994 33.3011 24.9843 33.3923 24.9843C33.514 24.9843 33.6052 25.0144 33.6964 25.0746C33.7877 25.1348 33.8485 25.21 33.8941 25.3303C33.9397 25.4356 33.9549 25.5559 33.9549 25.6763C33.9549 25.8116 33.9245 25.932 33.8789 26.0523C33.8333 26.1576 33.7573 26.2479 33.666 26.308C33.5748 26.3682 33.4683 26.3983 33.3619 26.3983C33.2859 26.3983 33.2098 26.3832 33.149 26.3531C33.0882 26.3231 33.0426 26.2779 32.9969 26.2328V26.8796H32.7841V26.8495ZM32.9969 25.6763C32.9969 25.8417 33.0274 25.9771 33.1034 26.0523C33.1794 26.1275 33.2555 26.1726 33.3619 26.1726C33.4683 26.1726 33.5444 26.1275 33.6204 26.0373C33.6964 25.947 33.7269 25.8267 33.7269 25.6462C33.7269 25.4807 33.6964 25.3453 33.6204 25.2701C33.5444 25.1799 33.4683 25.1498 33.3619 25.1498C33.2707 25.1498 33.1794 25.1949 33.1034 25.2852C33.0274 25.3754 32.9969 25.5108 32.9969 25.6763Z" fill="white"/>
<path d="M34.2289 26.3383V24.4882H34.457V26.3383H34.2289Z" fill="white"/>
<path d="M35.7496 25.902L35.9929 25.9321C35.9625 26.0675 35.8865 26.1728 35.7801 26.248C35.6736 26.3232 35.552 26.3683 35.3999 26.3683C35.2022 26.3683 35.0502 26.3081 34.9285 26.1878C34.8068 26.0675 34.7612 25.902 34.7612 25.6764C34.7612 25.4508 34.8221 25.2703 34.9437 25.1499C35.0654 25.0296 35.2174 24.9694 35.3999 24.9694C35.5824 24.9694 35.7344 25.0296 35.8409 25.1499C35.9625 25.2703 36.0082 25.4508 36.0082 25.6613C36.0082 25.6764 36.0082 25.6914 36.0082 25.7215H34.9741C34.9893 25.8719 35.0197 25.9772 35.0958 26.0524C35.1718 26.1276 35.263 26.1728 35.3847 26.1728C35.4759 26.1728 35.5368 26.1577 35.5976 26.1126C35.6584 26.0675 35.704 26.0073 35.7496 25.902ZM34.9893 25.541H35.7496C35.7344 25.4357 35.704 25.3455 35.6584 25.2853C35.5824 25.195 35.4911 25.1499 35.3695 25.1499C35.263 25.1499 35.1718 25.18 35.111 25.2552C35.0349 25.3304 35.0045 25.4207 34.9893 25.541Z" fill="white"/>
<path d="M29.9112 5.6107V5.53549C31.3558 5.08424 31.7055 4.03132 31.7055 2.60235V2.57226C31.7055 1.82017 31.5535 1.17338 31.2341 0.661957H25.4405V10.8753L25.4253 12.199H28.4057C30.6411 12.199 31.8272 11.2213 31.8272 8.43856V8.40847C31.8272 6.96446 31.295 5.91154 29.9112 5.6107ZM27.9191 1.30875H28.1016C29.0444 1.30875 29.3029 1.8653 29.3029 2.76781V2.82797C29.3029 3.76056 29.0444 4.51265 28.1472 4.51265H27.9039V1.30875H27.9191ZM29.3181 8.39343C29.3181 9.61182 29.0292 10.0631 28.0712 10.0631H27.9039V6.70875H28.1016C28.9836 6.70875 29.3029 7.34051 29.3029 8.33327V8.39343H29.3181Z" fill="white"/>
<path d="M36.4497 0.661957V9.05527C36.4497 9.79232 36.2824 10.2135 35.7502 10.2135C35.218 10.2135 35.0507 9.79232 35.0507 9.05527V0.661957H32.5569V8.98006C32.5569 11.1912 33.7278 12.4246 35.735 12.4246C37.7271 12.4246 38.9436 11.1912 38.9436 8.98006V0.661957H36.4497Z" fill="white"/>
<path d="M44.2051 4.93385L43.2775 4.24193C42.578 3.73051 42.2131 3.17396 42.2131 2.39179C42.2131 1.71491 42.4868 1.30878 42.9582 1.30878C43.4144 1.30878 43.6577 1.72995 43.6577 2.97842H46.0603C46.0755 2.0007 45.9538 1.23357 45.7257 0.646942H40.2058C39.9321 1.1734 39.7952 1.83524 39.7952 2.61742C39.7952 4.28705 40.4187 5.35502 41.7721 6.36282L42.6084 6.99458C43.4448 7.62633 43.6729 8.36338 43.6729 9.07034C43.6729 9.86756 43.384 10.1233 42.9886 10.1233C42.426 10.1233 42.1674 9.5968 42.1674 8.34834H39.6888C39.628 11.2213 40.9357 12.4247 42.8669 12.4247C44.8286 12.4247 46.1211 11.1912 46.1211 8.66421C46.1211 6.63357 45.2847 5.73107 44.2051 4.93385Z" fill="white"/>
<path d="M49.3753 10.8753V0.661957H46.8814V10.8753L46.8662 12.199H49.3905L49.3753 10.8753Z" fill="white"/>
<path d="M56.948 10.8753V0.661957H54.6214V3.42964C54.6214 3.8809 54.6366 4.51265 54.6518 4.94886H54.591C54.3933 4.43744 54.3781 4.31711 54.0588 3.61015L52.8423 0.661957H50.6525V10.8753L50.6373 12.199H52.9943L52.9791 10.8753V7.95722C52.9791 7.49093 52.9639 6.85917 52.9183 6.438H52.9943C53.0703 6.60346 53.268 7.17505 53.4505 7.58118L55.4121 12.199H56.9784L56.948 10.8753Z" fill="white"/>
<path d="M60.719 9.97282V6.799H62.8175V4.34719H60.719V1.44413H63.3345V0.661957H58.2252V10.8753L58.21 12.199H63.3801V9.97282H60.719Z" fill="white"/>
<path d="M68.6571 4.93382L67.7295 4.2419C67.03 3.73048 66.6651 3.17393 66.6651 2.39176C66.6651 1.71488 66.9388 1.30875 67.4102 1.30875C67.8664 1.30875 68.1097 1.72992 68.1097 2.97839H70.5123C70.5275 2.01572 70.4059 1.24859 70.1778 0.661957H64.6274C64.3689 1.18842 64.2169 1.85026 64.2169 2.61739C64.2169 4.28703 64.8403 5.35499 66.1937 6.36279L67.03 6.99455C67.8664 7.6263 68.0945 8.36335 68.0945 9.07031C68.0945 9.86753 67.8056 10.1232 67.4254 10.1232C66.8628 10.1232 66.6043 9.59678 66.6043 8.34831H64.1408C64.08 11.2213 65.3878 12.4246 67.319 12.4246C69.2806 12.4246 70.5731 11.1912 70.5731 8.66418C70.5731 6.63354 69.7368 5.73104 68.6571 4.93382Z" fill="white"/>
<path d="M75.7425 4.93382L74.8149 4.2419C74.1154 3.73048 73.7505 3.17393 73.7505 2.39176C73.7505 1.71488 74.0242 1.30875 74.4956 1.30875C74.9518 1.30875 75.1951 1.72992 75.1951 2.97839H77.5977C77.6129 2.01572 77.4912 1.24859 77.2631 0.661957H71.728C71.4695 1.18842 71.3174 1.85026 71.3174 2.61739C71.3174 4.28703 71.9409 5.35499 73.2943 6.36279L74.1306 6.99455C74.967 7.6263 75.1951 8.36335 75.1951 9.07031C75.1951 9.86753 74.9062 10.1232 74.526 10.1232C73.9634 10.1232 73.7048 9.59678 73.7048 8.34831H71.2414C71.1806 11.2213 72.4883 12.4246 74.4195 12.4246C76.3812 12.4246 77.6737 11.1912 77.6737 8.66418C77.6585 6.63354 76.8222 5.73104 75.7425 4.93382Z" fill="white"/>
<path d="M46.2266 19.9302L45.2991 19.2383C44.5996 18.7269 44.2346 18.1703 44.2346 17.3882C44.2346 16.7113 44.5083 16.3052 44.9797 16.3052C45.4359 16.3052 45.6792 16.7263 45.6792 17.9748H48.0818C48.1426 15.1018 46.987 14.0188 45.0862 14.0188C43.1093 14.0188 41.8168 15.2823 41.8168 17.6138C41.8168 19.2834 42.4403 20.3514 43.7936 21.3592L44.63 21.9909C45.4663 22.6227 45.6944 23.3748 45.6944 24.0667C45.6944 24.8639 45.4055 25.1196 45.0101 25.1196C44.4475 25.1196 44.189 24.5932 44.189 23.3447H41.7256C41.6951 24.6533 41.9537 25.616 42.4251 26.2628H47.4432C47.8993 25.6461 48.1579 24.7737 48.1579 23.6455C48.1426 21.6299 47.3063 20.7274 46.2266 19.9302Z" fill="white"/>
<path d="M52.8269 22.3221V22.4274C52.8269 24.443 52.8269 25.1951 52.097 25.1951C51.3518 25.1951 51.3518 24.3979 51.3518 22.9389V18.5015C51.3518 16.9071 51.4127 16.2453 52.097 16.2453C52.7964 16.2453 52.7964 16.9372 52.7964 18.4564V18.5617H55.2447V18.4865C55.2447 16.3806 54.8949 15.3879 54.2867 14.8163C53.7697 14.335 52.9637 14.0341 52.0209 14.0341C51.0933 14.0341 50.3178 14.3049 49.7856 14.8313C49.1165 15.4932 48.8124 16.6514 48.8124 19.0129V22.4274C48.8124 24.3227 48.9949 25.526 49.4967 26.2781H54.5604C55.0166 25.6012 55.2751 24.5333 55.2751 22.3973V22.3221H52.8269Z" fill="white"/>
<path d="M62.5281 15.5834L62.5433 14.2598H60.0191L60.0343 15.5834V19.2988H58.6049V15.5834L58.6201 14.2598H56.0958L56.111 15.5834V25.872V26.2781H58.6201V25.872V21.7656H60.0495V25.872V26.2781H62.5433V25.872V15.5834H62.5281Z" fill="white"/>
<path d="M69.5392 14.8763C69.0678 14.3949 68.2771 14.0941 67.2126 14.0941C66.1786 14.0941 65.3727 14.3799 64.8861 14.8763C64.2474 15.5381 63.9128 16.4707 63.9128 19.0729V22.4874C63.9128 24.6083 64.1257 25.6161 64.5515 26.2779H69.8585C70.2995 25.6161 70.5124 24.6083 70.5124 22.4874V19.0729C70.5276 16.4556 70.1931 15.5531 69.5392 14.8763ZM67.9882 22.9988C67.9882 24.518 67.9121 25.2551 67.2126 25.2551C66.4827 25.2551 66.4371 24.518 66.4371 22.9988V18.5615C66.4371 17.0423 66.4675 16.3052 67.2126 16.3052C67.9121 16.3052 67.9882 17.0423 67.9882 18.5615V22.9988Z" fill="white"/>
<path d="M76.8375 14.8763C76.3661 14.3949 75.5754 14.0941 74.511 14.0941C73.4617 14.0941 72.6558 14.3799 72.1844 14.8763C71.5457 15.5381 71.2112 16.4707 71.2112 19.0729V22.4874C71.2112 24.6083 71.4241 25.6161 71.8651 26.2779H77.1569C77.5979 25.6161 77.8108 24.6083 77.8108 22.4874V19.0729C77.826 16.4556 77.4762 15.5531 76.8375 14.8763ZM75.2865 22.9988C75.2865 24.518 75.2105 25.2551 74.5262 25.2551C73.7963 25.2551 73.7506 24.518 73.7506 22.9988V18.5615C73.7506 17.0423 73.7811 16.3052 74.5262 16.3052C75.2257 16.3052 75.2865 17.0423 75.2865 18.5615V22.9988Z" fill="white"/>
<path d="M81.3545 24.9695V15.5834L81.3697 14.2598H78.8455L78.8607 15.5834V25.872V26.2781H84.0004V24.9695H81.3545Z" fill="white"/>
<path d="M3.8775 0.661957V9.1756C3.8775 9.91265 3.71023 10.3338 3.17801 10.3338C2.64579 10.3338 2.47852 9.91265 2.47852 9.1756V0.661957H-0.00012207V9.1004C-0.00012207 11.3115 1.17077 12.545 3.17801 12.545C5.17004 12.545 6.37135 11.3115 6.37135 9.1004V0.661957H3.8775Z" fill="white"/>
<path d="M11.4197 7.4458V7.55109C11.4197 9.55165 11.4197 10.3188 10.6898 10.3188C9.94468 10.3188 9.94468 9.52157 9.94468 8.06251V3.62519C9.94468 2.03076 10.0055 1.36892 10.6898 1.36892C11.3893 1.36892 11.3893 2.06084 11.3893 3.58006V3.68535H13.8375V3.61015C13.8375 2.19622 13.6854 1.27867 13.3965 0.661957H7.89182C7.55728 1.38396 7.40521 2.45193 7.40521 4.13661V7.55109C7.40521 9.77728 7.66372 11.0408 8.37842 11.7477C8.89544 12.2592 9.62534 12.5299 10.6442 12.5299C11.6326 12.5299 12.3473 12.2742 12.8643 11.7477C13.503 11.101 13.8679 10.0631 13.8679 7.52101V7.4458H11.4197Z" fill="white"/>
<path d="M18.522 0.661957V9.1756C18.522 9.91265 18.3548 10.3338 17.8225 10.3338C17.2903 10.3338 17.123 9.91265 17.123 9.1756V0.661957H14.6444V9.1004C14.6444 11.3115 15.8153 12.545 17.8225 12.545C19.8146 12.545 21.0311 11.3115 21.0311 9.1004V0.661957H18.522Z" fill="white"/>
</g>
<defs>
<clipPath id="clip0_838_77">
<rect width="84" height="27" fill="white"/>
</clipPath>
</defs>
</svg>
