<svg width="38" height="47" viewBox="0 0 38 47" fill="none" xmlns="http://www.w3.org/2000/svg">
<path d="M37.1732 44.4062C37.4347 44.9845 37.9637 45.3552 37.8177 46.0625H0.0296631V46.0645C-0.139521 45.3047 0.455235 45.0228 0.798218 44.4521L37.1732 44.4062ZM13.9115 0.0214844L23.9906 30.0098L15.0902 43.2295C14.5704 43.6909 13.4641 43.3572 12.7797 43.4541V0L13.9115 0.0214844ZM7.32654 24.416C7.81256 25.1097 8.3041 25.9071 8.17029 26.793L5.55994 43.4561V43.4541L3.5697 43.4453L0.950562 26.3447L1.95251 24.7227L2.87537 26.2559L4.63806 37.1592L6.21228 26.373L7.32654 24.416ZM10.5531 24.5703C10.6442 24.8366 11.5511 25.79 11.5511 25.873V43.4541H9.55505V25.873C9.55505 25.7915 10.4377 24.7934 10.5531 24.5703ZM30.7455 28.3291L27.4467 32.248L27.3695 32.6123L31.6732 43.4512L29.7533 43.2988L26.4515 35.0068V43.4531H24.9144V24.7979C24.9452 24.6565 25.641 23.6828 25.7758 23.6533L30.7455 28.3291ZM33.7875 23.9961C33.8843 23.8485 33.7714 23.721 34.1312 23.7979V23.7998L37.4359 32.3955L37.516 33.082L34.8939 43.293C34.4018 43.2284 32.9453 43.4774 32.6713 43.1484C32.5652 43.0208 32.479 42.5562 32.4037 42.3408C31.3763 39.4094 30.6795 36.1133 29.8383 33.1064C31.0071 30.3889 32.0808 27.5989 33.3373 24.9229C33.4649 24.6522 33.6398 24.2237 33.7875 23.9961ZM20.6176 30.5576C20.5099 30.9621 20.2145 31.3423 19.973 31.6807C19.2696 32.6688 14.3199 39.2002 14.3177 39.6934V41.917L21.3285 31.8633L20.6176 30.5576ZM33.8236 28.4062C33.7238 28.3325 33.5423 28.6558 33.4867 28.7578C33.2268 29.2437 31.5521 33.1168 31.559 33.3691C32.3849 35.4009 32.7295 37.6468 33.5277 39.6816C33.5907 39.8416 33.5853 40.0521 33.8236 40.0752L35.6586 33.1006L33.8236 28.4062ZM14.473 36.8496L14.472 36.8516L20.0736 29.4736L20.1654 29.1025L14.3949 12.8945L14.473 36.8496ZM14.3168 8.67578L21.9994 30.5566C22.2163 30.7763 22.7115 29.8642 22.7631 29.7168L14.3168 5.98926V8.67578ZM26.4515 30.5566C26.8314 30.2445 28.5362 28.7541 28.4369 28.3447L26.4515 26.7168V30.5566ZM9.5531 21.9551C9.77014 21.7284 10.447 20.1789 10.7806 20.4219L11.5492 22.1094L9.5531 21.9551Z" fill="white"/>
</svg>
